<?xml version="1.0" encoding="utf-8"?>
<!-- Generator: Adobe Illustrator 19.2.1, SVG Export Plug-In . SVG Version: 6.00 Build 0)  -->
<svg version="1.1" baseProfile="tiny" id="Layer_1" xmlns="http://www.w3.org/2000/svg" xmlns:xlink="http://www.w3.org/1999/xlink"
	 x="0px" y="0px" viewBox="0 0 560.3 681.2" xml:space="preserve">
<g>
	<path fill="#FFFFFF" d="M322.3,85.9c13.9-22.6,30.6-42.8,51.3-59.6c-10.9-1.1-30.1,11.2-52,33c8-13.6,17-26.3,30.6-35.1
		c-0.1-0.3-0.2-0.7-0.3-1c-3.3,0.7-6.7,1-9.9,2.1c-9.2,3.2-16,9.8-22.2,17.1c-7.9,9.5-13.8,20.2-18.6,31.5c-0.3,0.8-0.7,1.6-1,2.5
		c-0.4-8.1-0.3-16-1.3-23.8c-1.7-13.8-6.3-26.5-15.6-37.2c-4-4.6-8.8-8.2-15.5-10.6c2.3,3.6,4.3,6.6,6.2,9.6
		c-7.7-4.9-15.9-6.7-25.1-5.7c3.5,5.9,7,11.6,10.4,17.3c-0.2,0.2-0.4,0.4-0.6,0.6c-7.2-8.3-16-13.1-26.8-13.8
		c5.1,9,10.1,17.8,15.1,26.6c-0.3,0.2-0.6,0.4-0.9,0.6c-9.4-11.6-21.3-18.7-36.4-20.1c10.4,9.7,18.4,21.1,24.9,33.5
		c10.3,19.5,17.7,39.9,16.5,62.4c-0.3,6.6-2.2,13.2-3.2,19.2c4.7-3.3,9.9-17,13.7-37.2c2.9,6.6,0.2,25.9-5.1,37.3
		c4.3-2.4,9.9-11.6,13-22.9c2.4-8.6,3.7-17.5,5.3-25.3c0,2.7,0.2,6.6,0,10.4c-0.2,4.1-0.7,8.1-1.4,12.2c-0.7,3.9-1.7,7.7-2.9,11.5
		c-1.2,3.7-2.8,7.3-4.1,11c8.7-10.4,14.5-22.4,18.7-35.2c0.3,0.1,0.6,0.2,0.9,0.3c-1.6,6-3.1,12-5,17.9c-1.9,5.8-4.3,11.5-6.3,17.4
		c6.8-6.7,11.7-14.8,16.1-23.4c0,9.7,0,19.2,0,28.6c-10.6,0.5-20.7,1-30.9,1.4c0,0.4,0,0.7,0,1.1c3.6,0.7,7.3,1.4,10.9,2.2
		c0.8,0.2,2,1,2.1,1.7c1.9,16.1,4.3,32.1,3.6,48.7c-17.5-11.3-36.7-17.6-56.9-21.3c18.8-1.2,36.5,3.7,54.1,9.5
		c0.1-0.4,0.3-0.8,0.4-1.1c-7.5-3.2-14.8-6.8-22.5-9.6c-7.7-2.8-15.7-4.8-23.6-7.4c15.3,0.9,30.4,3.3,45.1,8.1
		c-11.7-7.7-24.6-12.3-38.3-15.1c0.1-0.4,0.2-0.8,0.3-1.2c11.8,1.7,23.5,3.4,36.3,5.2c-10.9-4.9-21.1-9.5-31.4-14.2
		c10.3,1.8,20.6,3.7,30.9,5.5c0.1-0.2,0.2-0.3,0.4-0.5c-6.3-3.1-12.5-6.2-18.8-9.1c-1.1-0.5-2.9,0.2-4.4,0.5
		c-30.6,8.2-52.3,27.2-66.8,54.9c-2.3,4.3-3.9,8.9-5.8,13.4c11.8,2.7,23.5,5.8,35.4,7.8c9.4,1.6,19.1,2,29.2,3
		c-0.4,2.8-1,6.4-1.6,10.2c-16,0-31.3,3.5-46.4,7.7c13.5-7.4,28.2-10.6,43.2-13.4c-3.1,0.2-6.1,0.3-9.2,0.6
		c-3.2,0.3-6.5,0.8-9.7,1.3c-3.1,0.5-6.2,1.2-9.2,2c-3.1,0.8-6.2,1.8-9.6,2.1c2.4-1.3,4.9-2.6,7.8-4.2c-5.2-1.8-10-3.3-14.6-5.1
		c-5.6-2.2-11.1-4.7-16.6-7c-0.6,0.9-1.5,1.7-1.9,2.7c-5.9,17.2-9.4,34.9-10,53c-0.1,2.1,0.8,4.6,2.1,6.3
		c17.7,23.4,33.4,48,45.8,74.6c1.2,2.6,1,3.9-1.2,5.8c-7.6,6.5-13.5,14.5-18.1,23.5c0.6-1.6,1.2-3.2,1.9-4.8
		c0.8-1.7,1.7-3.3,2.6-4.9c1-1.6,2.1-3.1,2.9-4.9c-0.8,0.6-1.6,1.1-2.3,1.7c-17.7,15.5-24.1,35.2-21.5,58.1
		c2.9,24.8,14,46.4,27.2,67.1c2.7,4.2,5.5,8.2,8.7,12.1C193,475.6,184.6,443.6,186,409c1.2,32.4,15.5,59.9,32.9,86.1
		c1.3,2,1.5,3.5,0.5,5.6c-8.2,18.5-14.6,37.5-16.6,57.8c-0.3,2.6-0.4,5.3-0.6,8.1c-0.4-0.1-0.8,0-1.1-0.2
		c-26.5-20.5-45.7-46-54.8-78.6c-2-7.2-2.7-14.6-1.5-22.2c-3.2,5.4-4.7,11.3-5.4,17.5c-0.9,7.9,0.8,15.5,2.9,23.1l-0.1-0.1
		c4.2,7.2,7.8,14.8,12.8,21.5c11.8,15.9,27.4,27.9,43.9,38.6c2.5,1.6,3.3,3.3,3.4,6.1c0.3,7.5,1,15.1,1.5,23.3
		c-25.8-9.2-47.9-22.2-60.4-49c0.5,3.7,0.5,6.8,1.2,9.8c2.2,9.4,8.2,16.4,15.8,22c12.2,8.9,26.2,13.7,40.7,17c2.6,0.6,3.6,1.7,4,4.2
		c4.1,22.2,12,43.3,19.8,64.4c0.1,0.4,0.5,0.7,1.2,1.5c-1-9-2-17.4-3-25.8c-3.7-32.1-4.6-64.2-1.3-96.4c1.2-11.6,2.5-23.2,3.7-34.8
		c0.1-0.8,0.6-1.6,1.3-2c-0.1-2.2-0.5-4.4-0.3-6.6c0.5-5.6,1.2-11.1,1.1-16.9c-2,4.1-4,8.2-6.3,12.9c-0.8-1.4-1.5-2.5-2-3.5
		c-15.9-31-23-63.9-19.6-98.7c1-10.1,3.2-20,7.7-29.3c1.3-2.7,3-5.2,4.9-8.6c2.8,7.6,6.5,13.7,6.3,21.5c-0.4,17-0.1,34.1-0.1,51.1
		c0,15.6,11.1,26.8,26.6,26.8c7.7,0,15.4-0.2,23.1,0.1c3.8,0.2,6.5-1.2,8.2-4.2c2-3.4,3.5-7.2,5.5-11.4c0.4,5,0.7,9.9,1.1,15.1
		c0.9,0,2.4,0,3.8,0c3.5-10.7,1-22.9-7.3-36.8c11.7,9.4,20.1,20.6,20.2,36.7c1.7-3.4,2.1-10.4,0.3-17.3c-1.5-5.6-3.9-11.1-5.6-15.9
		c5.3,4.3,15,16.9,16.8,30.9c2.4-7.5,0-17.7-7.3-32.4c7.8,7.9,14.4,16.5,17.4,28c10.6-9.4,13.8-21.6,16.1-34.7
		c-4.9,7.2-9.5,14-14.1,20.7c-0.3-0.2-0.7-0.4-1-0.6c8-15,12.5-31,15-47.7c0.4-2.9,0.1-5.9-0.3-8.9c-3.4,17.4-8,34.4-18.3,49.6
		c-10-11.2-22.9-14.2-36.8-13.9c-13.8,0.2-26.8,3.6-37.7,13c-6.6-10.6-10.6-21.9-13.6-33.7c-6-23.1-8.4-46.8-9.1-70.6
		c-0.1-2,0-3.9,0-6.2c-5.8-0.7-11.3-1.3-16.8-2c-1.8-0.2-3.7-0.6-5.5-0.9c-8.8-1.7-9-1.9-9.5-11.7c2.9,1.2,5.6,2.6,8.4,3.6
		c8.1,2.9,16.2,5.8,24.4,8.5c1.4,0.5,3.3,0.4,4.7,0c13.8-3.8,27.6-7.7,41.4-11.4c2.6-0.7,3.4-1.9,3.4-4.6
		c-0.2-13.1-10.3-31.9-32.3-32.8c0-5.1,0-10.3,0-15.8c4.3,0.7,8.8,1.6,13.3,2.3c16.1,2.5,32.3,2.6,48.5,0.5c1.4-0.2,2.7-0.9,4.1-1.3
		c0.1-0.4,0.2-0.8,0.3-1.2c-1.6-1.1-3.1-2.7-4.9-3.1c-7.9-1.9-15.9-3.8-23.9-4.9c-8.5-1.2-17.1-1.6-25.7-2.4
		c14.3-2.5,28.7-3.5,43.3-2.8c-4.2-0.7-8.4-1.6-12.6-2.1c-4.3-0.6-8.6-1-12.9-1.3c-4.4-0.4-8.8-0.6-13.3-1.4
		c6.4-0.6,12.8-1.4,19.2-1.7c6.4-0.3,12.8-0.1,19.2-0.1c-11.4-3.2-23.2-4.1-35.1-4.3c0-0.4,0-0.7,0-1.1c10.3-1.1,20.7-2.2,31-3.3
		c0-0.2,0.1-0.3,0.1-0.5c-9.6-0.4-19.2-0.8-29.4-1.2c3-0.8,5.5-1.5,8.1-2.1c2.6-0.6,5.2-1.1,7.9-1.5c1.6-0.3,3.3-0.8,4.8-0.5
		c4.9,0.7,7.5-2.1,10.2-5.6c6.7-8.7,14.4-16.5,23.7-22.6c1.1-0.7,2.2-1.2,3.4-1.8c0.9-0.6,1.8-1.3,2.8-1.9c-0.8-0.4-1.6-0.8-2.4-1
		c-0.9-0.3-1.8-0.4-2.6-1.2c5.2,0.4,10.4,0.6,15.6,1.2c5.3,0.6,10.7,1.3,15.9,2.1c5.3,0.9,10.5,2,16,2.5c-3.8-1.7-7.5-3.4-11.4-4.9
		c-4-1.6-8.1-3.1-12.2-4.4c-4.1-1.3-8.3-2.5-12.4-3.6c-4.1-1.1-8.3-1.9-12.5-2.8c0.1-0.4,0.1-0.8,0.2-1.1c14.7,2,29.4,4,44,6
		c-15.6-7.7-32.3-12.7-49.4-16.4c4.5,0.4,9.1,0.7,13.6,1.2c4.6,0.5,9.3,1,13.9,1.7c4.6,0.7,9.1,1.7,14,1.8
		c-4.5-1.7-8.9-3.6-13.5-5.1c-4.7-1.6-9.5-3.1-14.4-4.4c-4.8-1.3-9.7-2.2-14.6-3.3c0-0.3,0.1-0.6,0.1-0.9c9.9,1,19.8,2,30.4,3.1
		c-12.4-7.6-25.3-11.5-39.2-13.6c2.2-12,6.1-23.2,11.3-34.2c18.1,7.7,34.3,18.1,48.9,31c17.9-24.7,59.1-44.6,94.9-32.1
		c-16.8-8.1-34.4-8.4-52.3-4.9c-17.9,3.5-34,10.8-48.3,22.3c9.5-13.5,22.1-23,37-29.6c15.1-6.6,30.8-8.8,47.1-5.3
		c-17-8.6-68-4.3-96.7,23.4c8.7-14.1,20.8-24.4,35.5-31.8c14.7-7.5,30.2-10.7,47.1-8.3c-7.4-4.2-31.4-5.2-48.6-1
		c-16.2,4-30.8,10.6-42.8,22.6c0.4-0.7,0.8-1.4,1.3-2c18-22.5,40.8-36.9,69.7-40.9c5.3-0.7,10.7-0.5,16.1-0.3
		c1.6,0.1,3.4,0.7,4.9,1.7l-4.6-3.3C380.9,43.1,349.3,58.7,322.3,85.9z M238.4,232.2c0.8,4.9,0.7,5-3.9,5.2
		c-14.5,0.6-28.6,3.2-42.6,7.3c-0.6,0.2-1.3,0.4-2.4,0.7C195.8,240.4,222.2,233.4,238.4,232.2z M182.7,259c9.3,3.8,18.3,8,27.6,11.1
		c9.2,3,18.8,4.9,28.2,7.6c-6.6-1.1-13.3-1.9-19.8-3.3c-10.3-2.2-20.5-5-30.9-7.3c-3.7-0.8-5.5-2.4-5-6.3
		C182.9,260.1,182.7,259.3,182.7,259z M216.7,304.5c-8-1.5-15.8-3.7-23.8-5.3c-3.4-0.7-5-2.3-5-5.8c0-1.1-0.3-2.2-0.5-4.1
		c15.1,9.9,31.5,14.7,48.7,17.6C229.6,306.1,223.1,305.6,216.7,304.5z M233.7,298.4c-1.8-0.3-3.7-0.5-5.5-0.9
		c-12.2-3-24.4-5.9-36.6-9.1c-5.7-1.5-5.7-1.7-5.8-8.6c16.8,10,34.7,15.4,53.3,19.3C237.3,298.9,235.5,298.7,233.7,298.4z
		 M244,288.8c-7.8-1.2-15.6-2.2-23.4-3.8c-10.5-2.1-20.9-4.8-31.4-7.1c-3.4-0.7-5.5-2.2-5.1-6c0.1-0.8-0.2-1.6-0.4-3
		C202.8,280,223.3,284.6,244,288.8z M228.1,211.9c0.2-3.1,0.9-5.9,0.4-8.5c-0.3-1.7-2.2-3.1-3.7-5c-0.7,3.2-0.8,5.7-1.8,7.8
		c-0.6,1.3-2.6,2.8-3.9,2.8c-1.3,0-3.3-1.5-3.9-2.8c-0.9-2.4-1-5.1-1.4-7.6c-4.7,1.6-6.3,4.6-5.3,11.2c-8.4-2.1-16.6-4.1-25.2-6.2
		c7.4-11.3,18.1-15.6,30.8-12.8c10.2,2.3,18.8,7.5,25.7,15.3c1.4,1.6,2.3,3.6,3.7,5.9C237.7,211.9,232.6,211.9,228.1,211.9z"/>
	<path d="M174.6,215.1C174.6,215.1,174.5,215.1,174.6,215.1c0,0.1-0.1,0.1-0.1,0.1L174.6,215.1z"/>
	<path d="M426.5,50.2c-0.3-0.2-0.5-0.4-0.8-0.5l2.5,1.8C427.6,51,427.1,50.6,426.5,50.2z"/>
	<path d="M421.5,46.3c-1.1-0.7-1.4-0.9-1.7-1.1c-0.8-0.6-1.6-1.1-2.5-1.7l3.8,2.8C421.3,46.3,421.4,46.3,421.5,46.3z"/>
	<path d="M142.2,506.9c0.1-0.2,0.1-0.4,0.2-0.6c0,0-0.1-0.1-0.1-0.1C142.3,506.4,142.3,506.6,142.2,506.9z"/>
	<path fill="#222222" d="M554.8,273.5c-6.6-40.1-18.9-78.3-37.6-114.4c-0.8-1.6-2.2-3-3.6-4c-12.9-9-26.7-16.1-42.5-17.9
		c-0.2-0.4-0.3-0.5-0.2-0.6c0.1-0.4,0.3-0.9,0.5-1.3c5.7-10.3,7.5-21.5,7-33.1c-0.1-1.5-0.7-3.2-1.7-4.4
		c-14.4-17.2-30.4-32.8-48.3-46.3l-2.5-1.8c-1.5-0.9-3.2-1.6-4.9-1.7c-5.3-0.2-10.8-0.4-16.1,0.3c-28.8,3.9-51.7,18.4-69.7,40.9
		c-0.5,0.6-0.8,1.3-1.3,2c12-12.1,26.7-18.7,42.8-22.6c17.3-4.2,41.2-3.2,48.6,1c-16.9-2.4-32.4,0.8-47.1,8.3
		c-14.7,7.4-26.8,17.7-35.5,31.8c28.7-27.7,79.7-32,96.7-23.4c-16.3-3.5-32-1.4-47.1,5.3c-14.9,6.6-27.5,16.1-37,29.6
		c14.3-11.5,30.4-18.9,48.3-22.3c17.9-3.5,35.5-3.2,52.3,4.9c-35.8-12.5-77,7.4-94.9,32.1c-14.6-12.9-30.7-23.3-48.9-31
		c-5.2,11-9.1,22.2-11.3,34.2c13.9,2.1,26.8,6,39.2,13.6c-10.7-1.1-20.5-2.1-30.4-3.1c0,0.3-0.1,0.6-0.1,0.9
		c4.9,1.1,9.8,2.1,14.6,3.3c4.8,1.3,9.6,2.7,14.4,4.4c4.6,1.6,9,3.4,13.5,5.1c-4.9-0.1-9.4-1.1-14-1.8c-4.6-0.7-9.2-1.2-13.9-1.7
		c-4.5-0.5-9-0.8-13.6-1.2c17.2,3.7,33.8,8.7,49.4,16.4c-14.6-2-29.3-4-44-6c-0.1,0.4-0.1,0.8-0.2,1.1c4.2,0.9,8.4,1.8,12.5,2.8
		c4.2,1.1,8.3,2.2,12.4,3.6c4.1,1.3,8.2,2.8,12.2,4.4c3.8,1.5,7.6,3.3,11.4,4.9c-5.5-0.4-10.7-1.6-16-2.5
		c-5.3-0.9-10.6-1.6-15.9-2.1c-5.2-0.5-10.4-0.8-15.6-1.2c0.8,0.8,1.8,0.9,2.6,1.2c0.8,0.3,1.6,0.7,2.4,1c2.5,0.2,5.3-0.8,6.9,2.2
		c0.8-0.2,1.6-0.7,2.3-0.6c11.3,2.9,22.2,6.8,32.2,11.6c-5.9-0.2-12.2-1-18.5-0.4c-12.1,1.1-21.3,7.7-28.4,17.3
		c-0.5,0.7-0.9,2-0.6,2.8c3.6,9.7,7.4,19.3,11.6,28.8c-1.3-7.1-2.7-14.3-4-21.4c0.2-0.1,0.4-0.1,0.5-0.2c1.2,3.4,2.4,6.9,3.6,10.3
		c0.2,0,0.4-0.1,0.6-0.1c-0.7-5.4-1.5-10.8-2.3-16.5c1.5,0,2.9-0.1,4.2,0c17,1.1,33.3-1.3,48.1-10.3c3-1.8,4.3,0.9,5.7,2.3
		c1.6,1.6,0.1,2.8-1.3,3.9c-9.9,7.5-21.1,11.2-33.5,11.4c-6.2,0.1-12.3,0-18,0c11,2,22.5,4.1,34,6.2c0,0.2-0.1,0.5-0.1,0.7
		c-11.1,0-22.1,0-32.1,0c12.4,2.8,25.8,5.9,39.2,8.9c-0.1,0.3-0.1,0.7-0.2,1c-12.3-0.4-24.6-0.8-36.9-1.2c0,0.1,0,0.2-0.1,0.3
		c5.7,1.5,11.5,2.8,17.1,4.5c5.7,1.7,11.2,3.7,16.7,6c-12.1-1.4-24.2-2.7-36.9-4.2c13.1,4.1,25.6,8.1,38.1,12c0,0.6,0,1.1,0,1.7
		c-10.2,3.8-20.2,7.9-30.5,11.3c-10.4,3.4-21,6-31.5,9.4c17.3-2.2,34.7-4.5,51.4-6.6c-15.6,8.6-33.3,13.2-51.5,16.1
		c0.1,0.3,0.1,0.7,0.2,1c17.2-2.2,34.3-4.5,51-6.7c-16.1,8.6-34,13.1-52.4,16.1c0,0.3,0.1,0.7,0.1,1c17.3-2.2,34.5-4.4,51.6-6.6
		c-3.2,1.5-6.7,3.4-10.3,4.6c-8.7,3-17.5,5.6-26.3,8.3c-1.5,0.4-3.3,0.4-4.8,0.1c-8.2-2.1-16.4-4.6-24.6-6.7
		c-2.2-0.6-2.6-1.7-2.6-3.7c0-9.6,3.7-17.4,10.7-23.8c6-5.6,13.2-9.1,21.4-11.1c-0.2-6.9,0.9-13.7-2.4-20.5
		c-4-8.3-7.2-16.9-10.5-25.5c-0.6-1.4-0.5-3.5,0-4.9c3.9-9.7,9.4-18.2,17.7-24.8c0.6-0.5,1-1.2,1.5-1.9c-11.3,6.2-20.1,15.3-28,25.3
		c3.8-9.1,9.3-16.9,16.9-23.3c0.9-0.7,1.6-1.6,2.4-2.4c-1.1,0.6-2.3,1.1-3.4,1.8c-9.3,6-17,13.9-23.7,22.6
		c-2.7,3.5-5.3,6.3-10.2,5.6c-1.6-0.2-3.2,0.3-4.8,0.5c-2.6,0.5-5.3,0.9-7.9,1.5c-2.6,0.6-5.1,1.3-8.1,2.1
		c10.2,0.4,19.8,0.8,29.4,1.2c0,0.2-0.1,0.3-0.1,0.5c-10.3,1.1-20.7,2.2-31,3.3c0,0.4,0,0.7,0,1.1c11.9,0.3,23.7,1.1,35.1,4.3
		c-6.4,0-12.8-0.2-19.2,0.1c-6.4,0.3-12.8,1.1-19.2,1.7c4.5,0.9,8.9,1.1,13.3,1.4c4.3,0.3,8.6,0.7,12.9,1.3
		c4.2,0.6,8.4,1.4,12.6,2.1c-14.6-0.7-29,0.3-43.3,2.8c8.6,0.9,17.2,1.2,25.7,2.4c8,1.1,16,3.1,23.9,4.9c1.8,0.4,3.3,2,4.9,3.1
		c-0.1,0.4-0.2,0.8-0.3,1.2c-1.4,0.5-2.7,1.1-4.1,1.3c-16.2,2.1-32.3,2-48.5-0.5c-4.5-0.7-9-1.6-13.3-2.3c0,5.5,0,10.7,0,15.8
		c22,0.8,32.1,19.7,32.3,32.8c0,2.7-0.7,3.9-3.4,4.6c-13.8,3.7-27.6,7.7-41.4,11.4c-1.5,0.4-3.3,0.5-4.7,0
		c-8.2-2.7-16.3-5.6-24.4-8.5c-2.8-1-5.5-2.3-8.4-3.6c0.6,9.8,0.7,10,9.5,11.7c1.8,0.4,3.7,0.7,5.5,0.9c5.5,0.7,11,1.3,16.8,2
		c0,2.3-0.1,4.2,0,6.2c0.7,23.8,3.1,47.5,9.1,70.6c3,11.8,7.1,23.1,13.6,33.7c10.9-9.5,23.9-12.8,37.7-13
		c13.9-0.3,26.8,2.8,36.8,13.9c10.3-15.2,14.9-32.1,18.3-49.6c0.3,3,0.7,6,0.3,8.9c-2.5,16.6-7,32.7-15,47.7c0.3,0.2,0.7,0.4,1,0.6
		c4.6-6.8,9.2-13.5,14.1-20.7c-2.3,13.2-5.5,25.4-16.1,34.7c-3-11.5-9.6-20.1-17.4-28c7.3,14.7,9.7,24.9,7.3,32.4
		c-1.8-14-11.5-26.6-16.8-30.9c1.7,4.8,4.1,10.3,5.6,15.9c1.9,6.9,1.5,13.9-0.3,17.3c-0.1-16.1-8.5-27.3-20.2-36.7
		c8.3,13.9,10.8,26.1,7.3,36.8c-1.4,0-2.9,0-3.8,0c-0.4-5.2-0.7-10.1-1.1-15.1c-2,4.2-3.5,7.9-5.5,11.4c-1.7,2.9-4.4,4.3-8.2,4.2
		c-7.7-0.3-15.4-0.1-23.1-0.1c-15.5-0.1-26.6-11.3-26.6-26.8c0-17-0.3-34.1,0.1-51.1c0.2-7.8-3.5-13.9-6.3-21.5
		c-1.9,3.4-3.6,5.9-4.9,8.6c-4.5,9.2-6.7,19.1-7.7,29.3c-3.4,34.9,3.7,67.7,19.6,98.7c0.6,1.1,1.2,2.1,2,3.5
		c2.3-4.7,4.3-8.8,6.3-12.9c0.1,5.8-0.6,11.4-1.1,16.9c-0.2,2.2,0.2,4.4,0.3,6.6c-0.7,0.4-1.2,1.2-1.3,2
		c-1.3,11.6-2.5,23.2-3.7,34.8c-3.3,32.2-2.4,64.3,1.3,96.4c1,8.4,2,16.8,3,25.8c-0.6-0.8-1-1.1-1.2-1.5
		c-7.8-21.1-15.8-42.1-19.8-64.4c-0.5-2.5-1.4-3.6-4-4.2c-14.5-3.3-28.5-8.1-40.7-17c-7.6-5.6-13.5-12.5-15.8-22
		c-0.7-3-0.8-6.1-1.2-9.8c12.5,26.8,34.6,39.8,60.4,49c-0.6-8.3-1.3-15.8-1.5-23.3c-0.1-2.9-0.9-4.5-3.4-6.1
		c-16.6-10.7-32.1-22.6-43.9-38.6c-4.9-6.6-8.5-14.2-12.7-21.4c-0.1,0.2-0.1,0.4-0.2,0.6c-0.7,5.5,0.7,10.6,2.7,15.6
		c9.2,22,24.9,38.2,44.7,50.9c1,0.6,2,1.2,3.3,2c-0.7,0.1-1.1,0.2-1.4,0.1c-14.1-6.9-27.5-14.8-38.3-26.5
		c-8.4-9-14.2-19.2-13.6-31.9c0.2-3.5,1.6-6.9,2.5-10.3c0-0.2,0-0.5,0.1-0.7c0,0,0.1,0.1,0.1,0.1c0,0,0,0,0,0
		c-2-7.6-3.7-15.2-2.9-23.1c0.7-6.2,2.2-12.1,5.4-17.5c-1.3,7.6-0.5,15,1.5,22.2c9.1,32.6,28.3,58.1,54.8,78.6
		c0.2,0.2,0.6,0.1,1.1,0.2c0.2-2.8,0.3-5.4,0.6-8.1c2-20.3,8.4-39.3,16.6-57.8c1-2.2,0.8-3.7-0.5-5.6
		c-17.5-26.2-31.7-53.7-32.9-86.1c-1.4,34.6,6.9,66.6,24.7,96.3c-3.1-3.9-6-7.9-8.7-12.1c-13.2-20.7-24.3-42.3-27.2-67.1
		c-2.6-22.9,3.7-42.7,21.5-58.1c0.7-0.6,1.5-1.1,2.3-1.7c-0.8,1.9-1.9,3.4-2.9,4.9c-1,1.6-1.8,3.2-2.6,4.9c-0.7,1.5-1.3,3.2-1.9,4.8
		c4.6-9,10.5-16.9,18.1-23.5c2.2-1.9,2.4-3.2,1.2-5.8c-12.4-26.6-28.2-51.2-45.8-74.6c-1.3-1.7-2.2-4.2-2.1-6.3
		c0.6-18.2,4.2-35.8,10-53c0.3-1,1.2-1.8,1.8-2.6c0.5-1.7,1-3.3,1.4-5l-0.1,0.1c1.9-4.5,3.6-9.1,5.8-13.4
		c14.5-27.7,36.2-46.7,66.8-54.9c1.4-0.4,3.2-1,4.4-0.5c6.4,2.9,12.6,6,18.8,9.1c-0.1,0.2-0.2,0.3-0.4,0.5
		c-10.3-1.8-20.6-3.7-30.9-5.5c10.3,4.7,20.5,9.3,31.4,14.2c-12.8-1.8-24.5-3.5-36.3-5.2c-0.1,0.4-0.2,0.8-0.3,1.2
		c13.6,2.8,26.6,7.4,38.3,15.1c-14.7-4.7-29.8-7.2-45.1-8.1c7.8,2.5,15.9,4.5,23.6,7.4c7.6,2.8,15,6.4,22.5,9.6
		c-0.1,0.4-0.3,0.8-0.4,1.1c-17.6-5.9-35.3-10.7-54.1-9.5c20.2,3.8,39.4,10.1,56.9,21.3c0.7-16.6-1.7-32.6-3.6-48.7
		c-0.1-0.7-1.3-1.5-2.1-1.7c-3.6-0.8-7.3-1.5-10.9-2.2c0-0.4,0-0.7,0-1.1c10.1-0.5,20.3-0.9,30.9-1.4c0-9.4,0-18.8,0-28.6
		c-4.3,8.6-9.2,16.7-16.1,23.4c2-5.9,4.4-11.5,6.3-17.4c1.9-5.9,3.4-11.9,5-17.9c-0.3-0.1-0.6-0.2-0.9-0.3
		c-4.2,12.9-10,24.8-18.7,35.2c1.3-3.7,2.9-7.3,4.1-11c1.2-3.8,2.2-7.6,2.9-11.5c0.7-4,1.1-8.1,1.4-12.2c0.2-3.8,0-7.6,0-10.4
		c-1.6,7.8-2.9,16.7-5.3,25.3c-3.1,11.4-8.8,20.5-13,22.9c5.3-11.4,8-30.8,5.1-37.3c-3.7,20.2-9,33.9-13.7,37.2
		c1-6,2.9-12.5,3.2-19.2c1.2-22.5-6.2-42.9-16.5-62.4c-6.6-12.4-14.5-23.8-24.9-33.5c15.1,1.3,26.9,8.5,36.4,20.1
		c0.3-0.2,0.6-0.4,0.9-0.6c-5-8.8-10-17.6-15.1-26.6c10.8,0.7,19.6,5.6,26.8,13.8c0.2-0.2,0.4-0.4,0.6-0.6
		c-3.4-5.7-6.8-11.4-10.4-17.3c9.2-1.1,17.4,0.8,25.1,5.7c-1.9-3-3.9-6-6.2-9.6c6.7,2.3,11.4,5.9,15.5,10.6
		c9.3,10.7,13.9,23.4,15.6,37.2c1,7.8,0.9,15.7,1.3,23.8c0.3-0.9,0.7-1.7,1-2.5c4.8-11.3,10.6-22.1,18.6-31.5
		c6.1-7.3,12.9-13.9,22.2-17.1c3.2-1.1,6.6-1.4,9.9-2.1c0.1,0.3,0.2,0.7,0.3,1c-13.6,8.8-22.7,21.5-30.6,35.1
		c21.9-21.8,41.1-34.1,52-33c-20.7,16.8-37.5,36.9-51.3,59.6c27-27.3,58.6-42.8,98.8-39.6l-3.8-2.8c-20.4-13.9-42.2-24.9-65.8-32.4
		c-1.7-0.5-3.7-0.5-5.4,0c-17.6,4.6-29.6,16-37.6,32c-0.4,0.8-0.8,1.7-1.3,2.5c-0.8-0.9-0.9-1.7-1-2.5
		c-1.8-17.7-10.2-31.5-24.7-41.5c-1.4-1-3.4-1.7-5.1-1.6c-30.2,0.4-59.1,6.8-87.2,18c-6.3,2.5-9,6.1-9.2,12.4
		c-0.2,5.3-0.6,10.6-1,16.1c-0.8-0.1-1.6-0.1-2.4-0.4c-9.5-3.1-19.2-3.7-29-3.1c-2.5,0.2-5.4,1-7.4,2.4
		c-40,28.1-70.4,64.6-93.8,107.2c-0.7,1.3-1,3.1-0.9,4.6c1,13.2,5,25.3,13.2,35.9c0.3,0.4,0.5,0.9,0.9,1.7
		c-15.5,3.6-28,12-39.3,22.3c-1.2,1.1-2.2,2.7-2.7,4.3c-9.1,29.1-14.5,58.8-16.6,89.1c-2.5,36-0.7,71.8,6.2,107.2
		c11.1,56.9,32.9,109.2,68.4,155.4c27.5,35.8,60.9,64.5,101.7,84.2c3.7,1.8,7.5,3.4,12,5.4c-9.4-20.4-17.9-40.1-23.3-61
		c1.4,1.8,2.6,3.8,3.6,5.8c11,21.2,23.7,41.2,38.1,60.2c1,1.4,2.7,2.6,4.4,3c10.3,2.7,20.5,5.8,30.9,7.4c24.2,3.8,48.5,3.9,72.8,0
		c1.7-0.3,3.5-1.3,4.7-2.6c22.7-25.2,41.3-53.2,56.8-83.2c3.2-6.2,6.3-12.6,9.4-18.9c-7.8,33.9-21.4,65.5-37.3,96.6
		c0.8-0.1,1.2-0.1,1.5-0.2c3.8-1.3,7.5-2.5,11.2-3.9c52.2-19.8,93.6-53.7,126.3-98.3c47.7-65.1,69.4-139,71.6-219.1
		C560.9,323.5,558.8,298.4,554.8,273.5z M354.5,210.5c-2.3,2.6-6.5,3.6-10,2.2c-3-1.2-5.1-3.2-4.9-7.2c6.4,5,11.2,4.5,15.6-1.6
		C356.8,206.4,356.2,208.6,354.5,210.5z M174.5,403.8c-3.8,25.2-0.6,49.8,8.1,73.6c3,8.2,7.2,15.9,10.9,23.8c0.4,0.9,0.9,1.8,1,2.8
		c-16.1-23.3-29.5-47.8-32.1-76.8c0.3,35.9,13.2,67,35.8,94.4c-21-22-40.1-45-44.7-76.8c0,2.1-0.1,4.2,0,6.3
		c0.1,2.1,0.4,4.2,0.7,6.3c0.3,2.2,0.6,4.4,1.1,6.5c6.6,29.1,20.8,53.9,42.1,74.8c0.7,0.7,1.6,1.3,2,2.6c-0.4-0.2-0.8-0.2-1-0.5
		c-14.4-12-27.7-25-38.1-40.7c-6.8-10.3-12-21.4-13.5-33.8c-1.3-10.7,0.6-20.9,5.7-30.4c1-1.9,1.6-4.1,2.3-6.1
		c0.8-2.7,1.2-5.5,2.3-8c4.3-9.5,8.7-19,13.4-28.3c3.1-6,7.6-11,13-15.1C178.6,386.2,175.9,394.7,174.5,403.8z M147.9,75.7
		c-2.6,0.4-5.2,0.7-7.7,1.2c-2.6,0.5-5.2,1.2-7.8,1.9c-0.2-0.3-0.4-0.6-0.6-0.9c6.4-4.4,12.8-8.8,19.1-13.2
		c-0.7,0.1-1.7,0.3-3.8,0.8c1.5-1.1,2.1-1.6,2.8-2c10.7-6,22-10.3,34.4-10.9c27.3-1.3,48,13.5,56.1,39.6c4.2,13.8,4.3,27.8,2.6,41.9
		c-0.1,0.4-0.3,0.8-0.7,1.3c1-25.2-4-47.5-28.2-61c17.9,18.6,26,40.1,19.7,65.9c0.9-14.3-3.4-26.8-12.7-37.7
		c-9.9-11.6-22.7-18.7-37.5-23.5c5.2,2.9,10.2,5.3,14.6,8.4c4.5,3.2,8.9,6.9,12.6,11c3.7,4.2,7.1,9.1,9.5,14.1
		c2.4,5,3.7,10.5,4.8,16c1.1,5.5,0.4,11-1.9,17.2c-0.2-4.3-0.2-7.6-0.7-10.9c-1.7-10.7-7.5-19-15.7-25.7C194,99,179,93.9,163,91.3
		c-16.5-2.7-33-2.1-49.5,1.1C117.3,86.9,135.2,78.5,147.9,75.7z M137.9,92.8c14.5-1.8,28.9-1.3,42.8,4c15.5,5.9,26.8,15.8,30.7,32.7
		c1.9,8.4,0.8,19.8-2.5,26.4c-0.3-3.3-0.4-6.4-1-9.5c-2.1-11.7-8.5-20.8-17.9-27.8c-12.7-9.4-27.3-13.9-42.7-16.2
		c-14.9-2.2-29.7-2.2-44.6,0.7c-0.6,0.1-1.3,0.1-1.9,0C112.6,97.9,125,94.5,137.9,92.8z M79.4,126.7c9.8-9.9,22-15,35.5-17.5
		c17.1-3.1,34-1.5,50.9,2.9c-24.7-0.4-48.5,2.3-68.1,19.5c24.9-13.9,51.2-15.8,78.5-10c-11.5-0.3-22.9,0.8-33.8,4.7
		c-20.6,7.2-36.6,19.7-45,40.5c-3.3,8.2-3.4,11.6-1.9,28c-8.4-9.1-14.8-18.7-16.2-30.9c-0.3,0-0.6,0.1-0.9,0.1
		c-0.4,6.6-0.8,13.1-1.3,19.5C64.7,167,63.1,143.2,79.4,126.7z M22.1,252c0.3-0.8,0.6-1.7,0.9-2.5c5.1-11,13.3-19.4,22.7-26.6
		c17.5-13.6,37.1-22.6,59.1-26.2c0.4-0.1,0.8-0.3,1-0.4c-1.8-4.9-4.1-9.5-5.3-14.4c-3-12.7,1.2-23.5,10.1-32.5
		c11.8-11.9,26.7-17.6,42.9-20.4c10.3-1.7,20.7-1.7,30.9,0.7c0.9,0.2,1.7,0.5,2.5,0.9c-39.1-5.4-80.3,30.4-75.6,65.1
		c9.9-0.6,19.7,0,29.1,3.4c9.4,3.4,17.2,9.1,23.5,17.4c-8.7-0.8-17-1.7-25.2-2.5c-0.1,0.3-0.2,0.5-0.3,0.8
		c8.2,2.6,15.8,6.1,21.8,12.3c-10.5,0-20.8,0-31.1,0c10.4,1.5,20.2,4.5,28.9,11.2c-12.1,0.5-23.8,1-35.5,1.6c0,0.3,0,0.6,0,1
		c12.6,0.6,24.7,2.8,36,8.5c-13.7,1-27.4,1.9-41.1,2.8c0,0.4,0,0.8,0,1.2c14.9-0.5,29.2,2.2,42.5,8.9c0,0.3,0,0.7,0,1
		c-1.6,0-3.2-0.1-4.8,0c-31,1.9-60.9,8.4-89.3,21.1c-5.4,2.4-10.6,5.4-15.6,8.6c-8.5,5.6-15.9,12.3-18.1,23c-0.8-7,1-13.3,4.2-19.3
		c6.1-11.4,15.5-19.7,26.3-26.5c1.4-0.9,2.7-1.7,3.9-2.8c-16.5,7.6-33.2,14.9-40.9,33.3c3.4-21.5,19.1-33.3,35.8-44.3
		c-15.4,6.7-30.4,14.1-39,30.1c1.1-3.1,2-6.4,3.5-9.3c4.5-8.7,11.3-15.3,18.8-21.4c10.2-8.1,21.4-14.5,33.4-19.4
		c1.1-0.4,2.1-0.9,3-1.7c-22.7,6.5-45,13.6-60.7,33c9.7-21.1,28.3-32.4,47.6-42.8C50.9,230.6,34.6,237.9,22.1,252z M156.9,619.9
		c-0.2,0.2-0.4,0.4-0.6,0.5c-6.8-11.4-13.9-22.6-20.4-34.2c-16.2-28.5-29.9-58-38-89.9c-3.8-14.7-6.1-29.7-5.9-45
		c0-0.9-0.1-1.8-0.3-2.7c-3.3,18.4-3.7,36.8-1.6,55.3c2.1,18.4,6.7,36.1,13.1,53.5c-1.5-3.3-3-6.6-4.4-9.9c-1.4-3.3-2.9-6.6-4.3-10
		c-10.8-26-19.6-52.6-23.9-80.6c-2.7-17.5-3.7-35-0.5-52.6c0.1-0.3-0.1-0.6-0.2-1.7c-6.2,15.9-10,31.7-11.6,48
		c-1.6,16.3-0.8,32.6,2.1,48.7c-7.6-22.8-21.5-92-2.6-137c-9,14-15.5,29.2-19.8,45.3c-4.3,16.1-6,32.5-5.1,49.2
		c-4.4-25.3-5.9-87.3,16.7-123.9c-5.3,4-17.9,23.3-24,36.6c-6.2,13.5-10.3,27.6-12.3,42.4c-0.3,0-0.6-0.1-0.9-0.1
		c0.8-7.1,1.4-14.3,2.5-21.4c2.9-20.3,8.1-40,17.5-58.3c10.9-21,26.2-37.4,48.5-46.3c17.6-7,35.9-7.8,54.4-5.5
		c2,0.2,3.9,0.6,5.9,0.9c0.4,0.1,0.8,0.2,1.8,0.6c-24.1,2.1-44.1,8.6-57,18.9c21.3-8.6,42.3-8.5,64.2-5c-5.8,1.1-11,1.7-16,3.1
		c-5.1,1.4-10.2,3.4-15,5.6c-4.7,2.2-9.3,4.9-13.7,7.7c-4.4,2.8-8.6,6.1-12.7,9.6c23.6-12.3,48.7-13.8,74.5-11.5
		c-26.3,4.1-45.9,19.1-63.4,37.8c22.5-14.6,47.8-18.6,73.9-19.3c-34.3,11.1-54.1,37.2-69.7,67.6c23.4-29.6,56.4-39,91.7-43.7
		c-1.6,0.8-3.3,1.5-4.9,2.3c-16.9,8.1-29.6,20.9-39.9,36.2c-15.8,23.3-24.8,49.3-28.7,77c-7.4,53,3,102.5,29.3,148.8
		c0.5,0.8,0.9,1.6,1.3,2.5C157,619.6,156.9,619.8,156.9,619.9z M244.2,676.5c-0.4-0.6-1-1.2-1.2-1.9c-10.2-27.2-19.4-54.7-22-83.9
		c-2.1-23.7,1.5-46.8,9.2-69.2c4.2-12.1,9.4-23.8,14.1-35.7c0.3-0.7,0.7-1.4,1.1-2.1c0.4,0.1,0.8,0.1,1.2,0.2
		c-9.2,64.1-12.2,128.2-1.1,192.4C245.1,676.3,244.7,676.4,244.2,676.5z M279.8,678.5c-5,1.9-5.7,1.5-7.3-2.8
		c-7.1-18.8-12-38.2-14.7-58.2c-0.2-1.4-0.6-2.7-1.2-4c0.6,11,0.9,22,1.8,32.9c0.8,9.7,2.4,19.4,3.5,29.1c0.1,0.9-0.6,2-0.9,2.9
		c-0.8-0.7-1.9-1.2-2.2-2c-12.1-33.6-21.8-67.7-19.8-104c1.2-21.6,6.3-42.4,13.7-62.6c2.9-8.1,6.3-16,9.6-24
		c0.3-0.8,0.8-1.6,0.9-1.8c-2.2,21.2-4.4,42.8-6.6,64.5c0.4,0.1,0.8,0.1,1.3,0.2c3.3-23.2,11-44.8,22.2-65.4
		C271.5,548.4,269.4,613.5,279.8,678.5z M441.5,146.1c19.9,4.8,37.4,13.2,50.6,29.3c-14.1-13.6-31.3-20.3-50.6-22.9
		C441.5,150.4,441.5,148.5,441.5,146.1z M438.1,160.1c0.4-0.4,1.5-0.5,2.2-0.4c22.6,4.3,42.7,13.2,57.2,31.9c1,1.2,1.8,2.6,2.6,3.9
		c-17.9-20.7-41.3-27.6-67.7-28.3C434.4,164.7,436.1,162.3,438.1,160.1z M379.2,262.9c4.9,2.9,9.8,5.8,14.7,8.6
		c-0.1,0.3-0.2,0.5-0.3,0.8c-3.1-0.5-6.3-0.9-10.4-1.5c3.2,2.9,5.7,5.2,8.3,7.5c-0.1,0.2-0.2,0.4-0.3,0.6c-3.2-0.5-6.4-0.9-10.3-1.5
		c2.1,2.8,3.8,5,5.9,7.8c-2.6-0.2-4.4-0.4-6.8-0.6c0.9,1.9,1.7,3.5,2.7,5.5c-2.1,0.2-3.7,0.4-5.7,0.6c0.6,1.8,1.2,3.5,1.9,5.5
		c-1.2,0.2-2.3,0.4-3.3,0.5C376.9,285.5,378,274.4,379.2,262.9z M361.3,321.1c-7.6,14.9-15.8,31.2-23.3,46
		c0.3-4.2,0.6-10.1,1.1-15.9c0.1-0.9,0.5-1.8,1.1-2.5C347.5,339,354.9,329.5,361.3,321.1z M340.2,332.2c-0.3,0-0.5-0.1-0.8-0.1
		c-0.2-4.4-0.4-8.9-0.5-13.3c0-0.4,0.8-1.2,1.3-1.3c2.3-0.4,4.7-0.7,7.8-1.1C345.2,322.1,342.7,327.1,340.2,332.2z M352.6,319.6
		c0.2,0.1,0.4,0.2,0.6,0.3c-4.3,8.8-8.6,17.5-12.9,26.3c0-5.3-2.4-10.8,2.6-15.4C346.4,327.5,349.3,323.3,352.6,319.6z M318.1,319.9
		c-0.5,9-4.3,16.9-8.9,24.7c-1-11.3-2-22.3-3-33.8C311.6,308.9,318.5,313.7,318.1,319.9z M258.5,394.3c-0.9-0.5-2.4-0.9-2.6-1.6
		c-2-6-2.1-12.2-1-18c1.4,5.5,2.9,11.2,4.3,17C259.4,392.4,258.8,393.4,258.5,394.3z M322.5,381.3c-1.8,5.9-5,10.9-9,15.5
		c2.3-12.7,4.2-25.2-1-37.6c-3.1,10.6-7.3,20.6-13.2,29.9c-1.2,1.9-2.3,2.6-4.7,2c-7.5-1.9-15.2-2.1-22.9-0.6
		c-2,0.4-3.2-0.1-3.8-1.8c-3.1-8.1-6.2-16.3-9.2-24.5c-1.1-3-1.8-6.2-2.6-9.3c-0.4-0.1-0.8-0.1-1.1-0.2c-0.6,1.6-1.5,3.1-1.8,4.7
		c-2.1,11.3-2.1,22.7-0.3,34.1c0.1,0.6,0.4,1.2,0.3,1.7c-0.1,0.7-0.5,1.4-0.8,2.1c-0.6-0.3-1.5-0.5-1.9-1c-1.1-1.8-2.2-3.6-3-5.5
		c-5.7-13.2-9.2-26.9-8.5-41.4c0.4-7.7,2.3-9.9,9.8-12.2c-1.6-4.9-3.1-9.9-4.6-14.8c-0.4-1.3-0.6-2.7-0.9-4.1
		c-0.8-4.5-0.1-5.5,5-7.2c-0.7,13.4,1,26.2,7.2,37.9c0.5-0.1,0.9-0.1,1.4-0.2c0-3.8,0-7.7,0-12.3c5.2,0.4,9.9,0.5,14.6,1.2
		c12.8,1.8,25.2,5.1,36.2,12.1c4.1,2.6,7.9,5.9,11,9.5C323.9,365.6,325,373.2,322.5,381.3z M336.9,312.3c-3.6,0.9-8-1.4-11.9-3
		c10.7-1.9,21.4-3.7,32.1-5.6c0.1,0.2,0.3,0.4,0.4,0.7C350.7,307.1,344,310.5,336.9,312.3z M323.5,447.8c6.2-3.7,9.7-9.8,13.3-15.9
		c-0.7,9.7-5.8,16.4-14.4,21C321.2,450.7,321.1,449.2,323.5,447.8z M340.6,581.3c-3.2,11.3-7,22.4-10.6,33.6
		c-0.2,0.6-0.6,1.2-1.4,2.7c2.8-24.5,5.4-48,4.5-71.7c0.1,28.7-8.4,55.4-17.8,81.9c1.8-24.4,3.7-48.9,5.5-73.4
		c-0.4,0-0.7-0.1-1.1-0.1c-0.7,28.2-8.7,54.8-18.3,81c2.8-18.2,4.8-36.4,4.5-54.8c-2.9,21.4-9.1,41.9-17.4,61.7
		c12.6-98.5,3.9-119.1,1.1-166.6c4.2,4.4,11.8,27.5,16.9,48.9c-1.6-16.2-3.2-32.4-4.8-49.2c8.6,20.6,15.1,41.3,17.3,63.2
		c0.3,0,0.6-0.1,0.8-0.1c-1.9-20.9-3.7-41.7-5.6-62.6c9.1,19.1,15.7,38.9,18.8,60c-2-20-4-40-6-59.9c0.3-0.2,0.5-0.4,0.8-0.7
		c0.1,0.4,0.1,0.9,0.3,1.3c8.4,18.2,15.4,36.7,17.4,56.9C347.3,549.6,345,565.6,340.6,581.3z M367.8,540.1
		c3.5-14.9,0.1-28.7-7.5-41.5c-7.5-12.6-17.8-22.3-31.4-28.8c2.5-3.3,4.7-6.4,6.9-9.4C363.8,476.4,378.7,517.9,367.8,540.1z
		 M379.5,516.8c2.6-24.1-11.5-44.3-42.3-59.7c1.7-3,3.4-5.9,5.1-8.9C369.1,460,387,495.7,379.5,516.8z M389.1,496.6
		c-0.2-12.8-5.5-23.4-14.2-32.5c-8.6-9.1-19-15.3-31.7-18.4c1.4-3.2,2.6-6,3.8-8.8C370.7,444,393.4,473.7,389.1,496.6z M534.8,259.9
		c-8.5-18.2-23.6-28.4-42-35.1c0.4,4,2,6.4,5.3,8.4c11.9,7.1,21.8,16.4,28.4,28.8c3.2,6,5.2,12.4,5.6,19.3
		c-8.7-26.2-29.9-36.1-54.1-42.4c27.8,12.7,47.6,31.2,46.2,64.6c-2-17-11.8-28.6-25.9-37.2c15.6,15.4,22.5,33.7,18.8,55.6
		c-0.4-8.9-2.8-17.2-7.9-24.5c-5.1-7.2-11.5-12.8-19.3-17.1c19,18.6,26.9,40.4,20.7,66.6c1.8-17.2-5.2-31.1-16.8-43
		c-9.5-9.8-23.5-18.1-35.8-21.4c33,40.4,46.3,87.7,50.5,138.4c-2.6-11.3-4.8-22.7-8.1-33.8c-3.4-11.2-7.2-22.4-12.1-33.1
		c-4.8-10.5-10.8-20.6-17.1-30.4c-6.3-10-14.4-18.6-24.5-26.4c36.5,49.9,49.3,106,49.6,165.9c-2.2-24.7-7-49-14.8-72.6
		c-7.8-23.7-18.2-46.1-32.8-66.6c28.6,59.8,35,123,28.7,188.2c-0.2-63.4-10.4-124.3-43.7-179.7c0,0.3-0.1,0.7,0,0.9
		c10.6,20.2,16.4,41.9,19.9,64.2c8.7,54.9,5.9,109.2-8.1,163c-0.3,1-0.6,2-0.9,3.1c1.5-14.2,3.6-28.3,4.4-42.4
		c0.9-14.2,1.1-28.5,0.5-42.6c-0.6-14.3-1.9-28.6-4.1-42.8c-2.2-14-5.5-27.9-9-41.7c-3.5-13.9-8.9-27.2-16.1-39.7
		c0.2,0.7,0.4,1.5,0.7,2.2c7.2,18,10.9,36.9,12.4,56.1c5.9,74.6-8.3,145.7-38.5,213.9c-0.7,1.6-1.5,3.1-2.7,4.4
		c1.4-4.1,2.8-8.3,4.2-12.4c15.6-46.9,23.8-95.1,24.1-144.6c0-5.2-0.6-10.5-0.3-15.7c0.7-12.4-4.6-22.2-13-30.5
		c-12.3-12.3-27.3-19.2-44.6-21c16,5,28.4,14.7,37.3,28.8c3.7,5.9,6.3,12.2,6.8,19.2c-8-23.3-25.7-34-48.6-38
		c22.3,10,38.2,25,40.9,50.7c-4.7-22.3-20.4-33.5-40.6-40c9.5,5.6,17.6,12.7,23.7,21.9c6.2,9.3,10.1,19.2,8.6,31.4
		c-2.8-26.4-19.3-39.5-41.3-47.1c3.3-11.8,6.6-23.6,9.9-35.6c18.8-1.3,47.1,18.5,59.5,41.8c-0.3-2.7-0.5-5.5-0.8-8.2
		c-2.4-19-6-37.8-14.1-55.3c-3.1-6.7-7.5-12.8-11.5-19.1c-1.6-2.5-3.7-4.8-6.1-7.7c-6,10.3-11.2,19.2-16.5,28.3
		c3.4,0.2,4.2-2.8,5.9-4.4c3.9-3.7,3.8-3.9,8.7-1.5c9.5,4.5,13.8,12.6,15.8,22.6c-5.9-9.1-13.3-15.7-24.8-15.8
		c12.6,4.9,19.3,14.4,21.5,27.6c-8-13.1-19.1-19.6-35.2-17.5c2.3-7.5,4.4-15.1,7.1-22.5c12.3-34.5,29.2-66.8,48.5-97.9
		c2-3.3,2.5-6.3,1.8-9.9c-3.2-17.9-9.9-34.7-16.9-51.4c-2.6-6.3-5.5-12.6-8.3-19.2c2.3-0.8,4.4-1.2,6.3-2.2
		c8.2-4.1,16.3-8.4,24.5-12.5c1.2-0.6,2.6-1.3,3.8-1.2c23.6,2.1,44.8,9.7,61.7,27c2.7,2.8,5.3,6,7.1,9.5c2.1,4.1,5.2,6.9,8.8,9.5
		c14.2,10.2,24.2,23.4,28.5,40.6C534.9,258.8,535,259.3,534.8,259.9z M403.1,382.4c-5.2-8.5-12.5-13.4-23.5-13.1
		c2.3-2.5,3.8-4.6,5.6-6.2c0.6-0.5,2.2-0.3,3.1,0.1C396.4,366,401.9,373,403.1,382.4z"/>
	<path fill="#222222" d="M183.5,203.6c7.4-11.3,18.1-15.6,30.8-12.8c10.2,2.3,18.8,7.5,25.7,15.3c1.4,1.6,2.3,3.6,3.7,5.9
		c-6,0-11.1,0-15.6,0c0.2-3.1,0.9-5.9,0.4-8.5c-0.3-1.7-2.2-3.1-3.7-5c-0.7,3.2-0.8,5.7-1.8,7.8c-0.6,1.3-2.6,2.8-3.9,2.8
		c-1.3,0-3.3-1.5-3.9-2.8c-0.9-2.4-1-5.1-1.4-7.6c-4.7,1.6-6.3,4.6-5.3,11.2C200.2,207.7,192,205.7,183.5,203.6z"/>
	<path fill="#222222" d="M175.9,210.2c11.8,2.7,23.5,5.8,35.4,7.8c9.4,1.6,19.1,2,29.2,3c-0.4,2.8-1,6.4-1.6,10.2
		c-16,0-31.3,3.5-46.4,7.7c13.5-7.4,28.2-10.6,43.2-13.4c-3.1,0.2-6.1,0.3-9.2,0.6c-3.2,0.3-6.5,0.8-9.7,1.3c-3.1,0.5-6.2,1.2-9.2,2
		c-3.1,0.8-6.2,1.8-9.6,2.1c2.4-1.3,4.9-2.6,7.8-4.2c-5.2-1.8-10-3.3-14.6-5.1c-5.6-2.2-11.1-4.7-16.6-7l-0.1,0.1
		c5.6,1.3,11.3,2.6,16.9,3.8c4.3,0.9,8.6,1.7,12.9,2.5c-1.5-1.2-3.2-1.7-4.8-2.3C191.7,216.2,183.8,213.2,175.9,210.2L175.9,210.2z"
		/>
	<path fill="#222222" d="M183.8,269c19,11,39.5,15.6,60.2,19.9c-7.8-1.2-15.6-2.2-23.4-3.8c-10.5-2.1-20.9-4.8-31.4-7.1
		c-3.4-0.7-5.5-2.2-5.1-6C184.3,271.2,184,270.4,183.8,269z"/>
	<path fill="#222222" d="M182.7,259c9.3,3.8,18.3,8,27.6,11.1c9.2,3,18.8,4.9,28.2,7.6c-6.6-1.1-13.3-1.9-19.8-3.3
		c-10.3-2.2-20.5-5-30.9-7.3c-3.7-0.8-5.5-2.4-5-6.3C182.9,260.1,182.7,259.3,182.7,259z"/>
	<path fill="#222222" d="M238.4,232.2c0.8,4.9,0.7,5-3.9,5.2c-14.5,0.6-28.6,3.2-42.6,7.3c-0.6,0.2-1.3,0.4-2.4,0.7
		C195.8,240.4,222.2,233.4,238.4,232.2z"/>
	<path fill="#222222" d="M187.3,289.4c15.1,9.9,31.5,14.7,48.7,17.6c-6.5-0.8-13-1.3-19.3-2.5c-8-1.5-15.8-3.7-23.8-5.3
		c-3.4-0.7-5-2.3-5-5.8C187.9,292.3,187.6,291.2,187.3,289.4z"/>
	<path fill="#222222" d="M185.9,279.8c16.8,10,34.7,15.4,53.3,19.3c-1.8-0.2-3.6-0.4-5.4-0.7c-1.8-0.3-3.7-0.5-5.5-0.9
		c-12.2-3-24.4-5.9-36.6-9.1C186,286.9,186,286.7,185.9,279.8z"/>
	<path fill="#FFFFFF" d="M321.6,182.2c2.5,0.2,5.3-0.8,6.9,2.2c-0.3,0-0.6,0.1-0.9,0.1c-11.3,6.2-20.1,15.3-28,25.3
		c3.8-9.1,9.3-16.9,16.9-23.3c0.9-0.7,1.6-1.6,2.4-2.4C319.8,183.5,320.7,182.8,321.6,182.2z"/>
	<path fill="#FFFFFF" d="M524.2,303.5c-2-17-11.8-28.6-25.9-37.2c15.6,15.4,22.5,33.7,18.8,55.6c-0.4-8.9-2.8-17.2-7.9-24.5
		c-5.1-7.2-11.5-12.8-19.3-17.1c19,18.6,26.9,40.4,20.7,66.6c1.8-17.2-5.2-31.1-16.8-43c-9.5-9.8-23.5-18.1-35.8-21.4
		c33,40.4,46.3,87.7,50.5,138.4c-2.6-11.3-4.8-22.7-8.1-33.8c-3.4-11.2-7.3-22.4-12.1-33.1c-4.8-10.5-10.8-20.6-17.1-30.4
		c-6.3-10-14.4-18.6-24.5-26.4c36.5,49.9,49.3,106,49.6,165.9c-2.2-24.7-7-49-14.8-72.6c-7.8-23.7-18.2-46.1-32.8-66.6
		c28.6,59.8,35,123,28.7,188.2c-0.2-63.4-10.4-124.3-43.7-179.7c0,0.3-0.1,0.7,0,0.9c10.6,20.2,16.4,41.9,19.9,64.2
		c8.7,54.9,5.9,109.2-8.1,163c-0.3,1-0.6,2-0.9,3.1c1.5-14.2,3.6-28.3,4.4-42.4c0.9-14.2,1.1-28.5,0.5-42.6
		c-0.6-14.3-1.9-28.6-4.1-42.8c-2.2-14-5.5-27.9-9-41.7c-3.5-13.9-8.9-27.2-16.1-39.7c0.2,0.7,0.4,1.5,0.7,2.2
		c7.2,18,10.9,36.9,12.4,56.1c5.9,74.6-8.3,145.7-38.5,213.9c-0.7,1.6-1.5,3.1-2.7,4.4c1.4-4.1,2.8-8.3,4.2-12.4
		c15.6-46.9,23.8-95.1,24.1-144.6c0-5.2-0.6-10.5-0.3-15.7c0.7-12.4-4.6-22.2-13-30.5c-12.3-12.3-27.3-19.2-44.6-21
		c16,5,28.4,14.7,37.3,28.8c3.7,5.9,6.3,12.2,6.8,19.2c-8-23.3-25.7-34-48.6-38c22.3,10,38.2,25,40.9,50.7
		c-4.7-22.3-20.4-33.5-40.6-40c9.5,5.6,17.6,12.7,23.7,21.9c6.2,9.3,10.1,19.2,8.6,31.4c-2.8-26.4-19.3-39.5-41.3-47.1
		c3.3-11.8,6.6-23.6,9.9-35.6c18.8-1.3,47.1,18.5,59.5,41.8c-0.3-2.7-0.5-5.5-0.8-8.2c-2.4-19-6-37.8-14.1-55.3
		c-3.1-6.7-7.5-12.8-11.5-19.1c-1.6-2.5-3.7-4.8-6.1-7.7c-6,10.3-11.2,19.2-16.5,28.3c3.4,0.2,4.2-2.8,5.9-4.4
		c3.9-3.7,3.8-3.9,8.7-1.5c9.5,4.5,13.8,12.6,15.8,22.6c-5.9-9.1-13.3-15.7-24.8-15.8c12.6,4.9,19.3,14.4,21.5,27.6
		c-8-13.1-19.1-19.6-35.2-17.5c2.3-7.5,4.4-15.1,7.1-22.5c12.3-34.5,29.2-66.8,48.5-97.9c2-3.3,2.5-6.3,1.8-9.9
		c-3.2-17.9-9.9-34.7-16.9-51.4c-2.6-6.3-5.5-12.6-8.3-19.2c2.3-0.8,4.4-1.2,6.3-2.2c8.2-4.1,16.3-8.4,24.5-12.5
		c1.2-0.6,2.6-1.3,3.8-1.2c23.6,2.1,44.8,9.7,61.7,27c2.7,2.8,5.3,6,7.1,9.5c2.1,4.1,5.2,6.9,8.8,9.5c14.2,10.2,24.2,23.4,28.5,40.6
		c0.1,0.4,0.1,0.9,0,1.5c-8.5-18.2-23.6-28.4-42-35.1c0.4,4,2,6.4,5.3,8.4c11.9,7.1,21.8,16.4,28.4,28.8c3.2,6,5.2,12.4,5.6,19.3
		c-8.7-26.2-29.9-36.1-54.1-42.4C505.8,251.7,525.6,270.1,524.2,303.5z M497.9,211.3c-18.7-23.4-43.9-29.2-71.5-28.9
		c0.3,0.4,0.7,0.5,1.2,0.6c17,2.8,32.8,8.7,46.6,19.2c0.4,0.3,0.8,0.6,1.2,0.7C482.6,205.7,489.9,208.3,497.9,211.3z M456.2,199.3
		c-14.6-5.2-29.6-7.2-45.4-5c1.2,3.5,2.2,6.6,3.3,9.8C428.2,200.1,442,198.3,456.2,199.3z M492.5,228.9c-1.6-2.2-2.5-4.9-4-5.3
		c-8.4-2.2-17-3.9-25.5-5.7c0,0.2,0,0.4-0.1,0.6C472.4,221.9,482,225.2,492.5,228.9z"/>
	<path fill="#FFFFFF" d="M156.3,620.4c-6.8-11.4-13.9-22.6-20.4-34.2c-16.2-28.5-29.9-58-38-89.9c-3.8-14.7-6.1-29.7-5.9-45
		c0-0.9-0.1-1.8-0.3-2.7c-3.3,18.4-3.7,36.8-1.6,55.3c2.1,18.4,6.7,36.1,13.1,53.5c-1.5-3.3-3-6.6-4.4-9.9c-1.4-3.3-2.9-6.6-4.3-10
		c-10.8-26-19.6-52.6-23.9-80.6c-2.7-17.5-3.7-35-0.5-52.6c0.1-0.3-0.1-0.6-0.2-1.7c-6.2,15.9-10,31.7-11.6,48
		c-1.6,16.3-0.8,32.6,2.1,48.7c-7.6-22.8-21.5-92-2.6-137c-9,14-15.5,29.2-19.8,45.3c-4.3,16.1-6,32.5-5.1,49.2
		c-4.4-25.3-5.9-87.3,16.7-123.9c-5.3,4-17.9,23.3-24,36.6c-6.2,13.5-10.3,27.6-12.3,42.4c-0.3,0-0.6-0.1-0.9-0.1
		c0.8-7.1,1.4-14.3,2.5-21.4c2.9-20.3,8.1-40,17.5-58.3c10.9-21,26.2-37.4,48.5-46.3c17.6-7,35.9-7.8,54.4-5.5
		c2,0.2,3.9,0.6,5.9,0.9c0.4,0.1,0.8,0.2,1.8,0.6c-24.1,2.1-44.1,8.6-57,18.9c21.3-8.6,42.3-8.5,64.2-5c-5.8,1.1-11,1.7-16,3.1
		c-5.1,1.4-10.2,3.4-15,5.6c-4.7,2.2-9.3,4.9-13.7,7.7c-4.4,2.8-8.6,6.1-12.7,9.6c23.6-12.3,48.7-13.8,74.5-11.5
		c-26.3,4.1-45.9,19.1-63.4,37.8c22.5-14.6,47.8-18.6,73.9-19.3c-34.3,11.1-54.1,37.2-69.7,67.6c23.4-29.6,56.4-39,91.7-43.7
		c-1.6,0.8-3.3,1.5-4.9,2.3c-16.9,8.1-29.6,20.9-39.9,36.2c-15.8,23.3-24.8,49.3-28.7,77c-7.4,53,3,102.5,29.3,148.8
		c0.5,0.8,0.9,1.6,1.3,2.5c0,0.1,0,0.2,0,0.3C156.7,620,156.5,620.2,156.3,620.4z"/>
	<path fill="#FFFFFF" d="M20.5,267.9c9.7-21.1,28.3-32.4,47.6-42.8c-17.2,5.6-33.5,12.8-46,27c0.3-0.8,0.6-1.7,0.9-2.5
		c5.1-11,13.3-19.4,22.7-26.6c17.5-13.6,37.1-22.6,59.1-26.2c0.4-0.1,0.8-0.3,1-0.4c-1.8-4.9-4.1-9.5-5.3-14.4
		c-3-12.7,1.2-23.5,10.1-32.5c11.8-11.9,26.7-17.6,42.9-20.4c10.3-1.7,20.7-1.7,30.9,0.7c0.9,0.2,1.7,0.5,2.5,0.9
		c-39.1-5.4-80.3,30.4-75.6,65.1c9.9-0.6,19.7,0,29.1,3.4c9.4,3.4,17.2,9.1,23.5,17.4c-8.7-0.8-17-1.7-25.2-2.5
		c-0.1,0.3-0.2,0.5-0.3,0.8c8.2,2.6,15.8,6.1,21.8,12.3c-10.5,0-20.8,0-31.1,0c10.4,1.5,20.2,4.5,28.9,11.2
		c-12.1,0.5-23.8,1-35.5,1.6c0,0.3,0,0.6,0,1c12.6,0.6,24.7,2.8,36,8.5c-13.7,1-27.4,1.9-41.1,2.8c0,0.4,0,0.8,0,1.2
		c14.9-0.5,29.2,2.2,42.5,8.9c0,0.3,0,0.7,0,1c-1.6,0-3.2-0.1-4.8,0c-31,1.9-60.9,8.4-89.3,21.1c-5.4,2.4-10.6,5.4-15.6,8.6
		c-8.5,5.6-15.9,12.3-18.1,23c-0.8-7,1-13.3,4.2-19.3c6.1-11.4,15.5-19.7,26.3-26.5c1.4-0.9,2.7-1.7,3.9-2.8
		c-16.5,7.6-33.2,14.9-40.9,33.3c3.4-21.5,19.1-33.3,35.8-44.3c-15.4,6.7-30.4,14.1-39,30.1c1.1-3.1,2-6.4,3.5-9.3
		c4.5-8.7,11.3-15.3,18.8-21.4c10.2-8.1,21.4-14.5,33.4-19.4c1.1-0.4,2.1-0.9,3-1.7C58.5,241.3,36.2,248.4,20.5,267.9z"/>
	<path fill="#FFFFFF" d="M306.6,524.4c-1.6-16.2-3.2-32.4-4.8-49.2c8.6,20.6,15.1,41.3,17.3,63.2c0.3,0,0.6-0.1,0.8-0.1
		c-1.9-20.9-3.7-41.7-5.6-62.6c9.1,19.1,15.7,38.9,18.8,60c-2-20-4-40-6-59.9c0.3-0.2,0.5-0.4,0.8-0.7c0.1,0.4,0.1,0.9,0.3,1.3
		c8.4,18.2,15.4,36.7,17.4,56.9c1.6,16.4-0.7,32.4-5.1,48.1c-3.2,11.3-7,22.4-10.6,33.6c-0.2,0.6-0.6,1.2-1.4,2.7
		c2.8-24.5,5.4-48,4.5-71.7c0.1,28.7-8.4,55.4-17.8,81.9c1.8-24.4,3.7-48.9,5.5-73.4c-0.4,0-0.7-0.1-1.1-0.1
		c-0.7,28.2-8.7,54.8-18.3,81c2.8-18.2,4.8-36.4,4.5-54.8c-2.9,21.4-9.1,41.9-17.4,61.7c12.6-98.5,3.9-119.1,1.1-166.6
		C293.8,479.9,301.4,503,306.6,524.4z"/>
	<path fill="#FFFFFF" d="M263,483.9c-2.2,21.2-4.4,42.8-6.6,64.5c0.4,0.1,0.8,0.1,1.3,0.2c3.3-23.2,11-44.8,22.2-65.4
		c-8.3,65.2-10.5,130.3-0.1,195.2c-5,1.9-5.7,1.5-7.3-2.8c-7.1-18.8-12-38.2-14.7-58.2c-0.2-1.4-0.6-2.7-1.2-4
		c0.6,11,0.9,22,1.8,32.9c0.8,9.7,2.4,19.4,3.5,29.1c0.1,0.9-0.6,2-0.9,2.9c-0.8-0.7-1.9-1.2-2.2-2c-12.1-33.6-21.8-67.7-19.8-104
		c1.2-21.6,6.3-42.4,13.7-62.6c2.9-8.1,6.3-16,9.6-24C262.4,484.9,262.9,484.2,263,483.9z"/>
	<path fill="#FFFFFF" d="M327.6,184.5c0.3,0,0.6-0.1,0.9-0.1c0.8-0.2,1.6-0.7,2.3-0.6c11.3,2.9,22.2,6.8,32.2,11.6
		c-5.9-0.2-12.2-1-18.5-0.4c-12.1,1.1-21.3,7.7-28.4,17.3c-0.5,0.7-0.9,2-0.6,2.8c3.6,9.7,7.4,19.3,11.6,28.8
		c-1.3-7.1-2.7-14.3-4-21.4c0.2-0.1,0.4-0.1,0.5-0.2c1.2,3.4,2.4,6.9,3.6,10.3c0.2,0,0.4-0.1,0.6-0.1c-0.7-5.4-1.5-10.8-2.3-16.5
		c1.5,0,2.9-0.1,4.2,0c17,1.1,33.3-1.3,48.1-10.3c3-1.8,4.3,0.9,5.7,2.3c1.6,1.6,0.1,2.8-1.3,3.9c-9.9,7.5-21.1,11.2-33.5,11.4
		c-6.2,0.1-12.3,0-18,0c11,2,22.5,4.1,34,6.2c0,0.2-0.1,0.5-0.1,0.7c-11.1,0-22.1,0-32.1,0c12.4,2.8,25.8,5.9,39.2,8.9
		c-0.1,0.3-0.1,0.7-0.2,1c-12.3-0.4-24.6-0.8-36.9-1.2c0,0.1,0,0.2-0.1,0.3c5.7,1.5,11.5,2.8,17.1,4.5c5.7,1.7,11.2,3.7,16.7,6
		c-12.1-1.4-24.2-2.7-36.9-4.2c13.1,4.1,25.6,8.1,38.1,12c0,0.6,0,1.1,0,1.7c-10.2,3.8-20.2,7.9-30.5,11.3c-10.4,3.4-21,6-31.5,9.4
		c17.3-2.2,34.7-4.5,51.4-6.6c-15.6,8.6-33.3,13.2-51.5,16.1c0.1,0.3,0.1,0.7,0.2,1c17.2-2.2,34.3-4.5,51-6.7
		c-16.1,8.6-34,13.1-52.4,16.1c0,0.3,0.1,0.7,0.1,1c17.3-2.2,34.5-4.4,51.6-6.6c-3.2,1.5-6.7,3.4-10.3,4.6c-8.7,3-17.5,5.6-26.3,8.3
		c-1.5,0.4-3.3,0.4-4.8,0.1c-8.2-2.1-16.4-4.6-24.6-6.7c-2.2-0.6-2.6-1.7-2.6-3.7c0-9.6,3.7-17.4,10.7-23.8
		c6-5.6,13.2-9.1,21.4-11.1c-0.2-6.9,0.9-13.7-2.4-20.5c-4-8.3-7.2-16.9-10.5-25.5c-0.6-1.4-0.5-3.5,0-4.9
		c3.9-9.7,9.4-18.2,17.7-24.8C326.7,185.9,327.1,185.1,327.6,184.5z"/>
	<path fill="#FFFFFF" d="M150.9,64.7c-0.7,0.1-1.7,0.3-3.8,0.8c1.5-1.1,2.1-1.6,2.8-2c10.7-6,22-10.3,34.4-10.9
		c27.3-1.3,48,13.5,56.1,39.6c4.2,13.8,4.3,27.8,2.6,41.9c-0.1,0.4-0.3,0.8-0.7,1.3c1-25.2-4-47.5-28.2-61
		c17.9,18.6,26,40.1,19.7,65.9c0.9-14.3-3.4-26.8-12.7-37.7c-9.9-11.6-22.7-18.7-37.5-23.5c5.2,2.9,10.2,5.3,14.6,8.4
		c4.5,3.2,8.9,6.9,12.6,11c3.7,4.2,7.1,9.1,9.5,14.1c2.4,5,3.7,10.5,4.8,16c1.1,5.5,0.4,11-1.9,17.2c-0.2-4.3-0.2-7.6-0.7-10.9
		c-1.7-10.7-7.5-19-15.7-25.7C194,99,179,93.9,163,91.3c-16.5-2.7-33-2.1-49.5,1.1c3.8-5.5,21.7-13.9,34.3-16.6
		c-2.6,0.4-5.2,0.7-7.7,1.2c-2.6,0.5-5.2,1.2-7.8,1.9c-0.2-0.3-0.4-0.6-0.6-0.9C138.2,73.5,144.6,69.1,150.9,64.7z"/>
	<path fill="#FFFFFF" d="M313.5,396.7c2.3-12.7,4.2-25.2-1-37.6c-3.1,10.6-7.3,20.6-13.2,29.9c-1.2,1.9-2.3,2.6-4.7,2
		c-7.5-1.9-15.2-2.1-22.9-0.6c-2,0.4-3.2-0.1-3.8-1.8c-3.1-8.1-6.2-16.3-9.2-24.5c-1.1-3-1.8-6.2-2.6-9.3c-0.4-0.1-0.8-0.1-1.1-0.2
		c-0.6,1.6-1.5,3.1-1.8,4.7c-2.1,11.3-2.1,22.7-0.3,34.1c0.1,0.6,0.4,1.2,0.3,1.7c-0.1,0.7-0.5,1.4-0.8,2.1c-0.6-0.3-1.5-0.5-1.9-1
		c-1.1-1.8-2.2-3.6-3-5.5c-5.7-13.2-9.2-26.9-8.5-41.4c0.4-7.7,2.3-9.9,9.8-12.2c-1.6-4.9-3.1-9.9-4.6-14.8
		c-0.4-1.3-0.6-2.7-0.9-4.1c-0.8-4.5-0.1-5.5,5-7.2c-0.7,13.4,1,26.2,7.2,37.9c0.5-0.1,0.9-0.1,1.4-0.2c0-3.8,0-7.7,0-12.3
		c5.2,0.4,9.9,0.5,14.6,1.2c12.8,1.8,25.2,5.1,36.2,12.1c4.1,2.6,7.9,5.9,11,9.5c5.5,6.4,6.6,14,4.1,22
		C320.7,387.1,317.5,392.2,313.5,396.7z"/>
	<path fill="#FFFFFF" d="M176.1,121.6c-11.5-0.3-22.9,0.8-33.8,4.7c-20.6,7.2-36.6,19.7-45,40.5c-3.3,8.2-3.4,11.6-1.9,28
		c-8.4-9.1-14.8-18.7-16.2-30.9c-0.3,0-0.6,0.1-0.9,0.1c-0.4,6.6-0.8,13.1-1.3,19.5c-12.4-16.5-14-40.3,2.2-56.8
		c9.8-9.9,22-15,35.5-17.5c17.1-3.1,34-1.5,50.9,2.9c-24.7-0.4-48.5,2.3-68.1,19.5C122.5,117.7,148.8,115.8,176.1,121.6z"/>
	<path fill="#FFFFFF" d="M246.6,483.9c-9.2,64.1-12.2,128.2-1.1,192.4c-0.4,0.1-0.8,0.2-1.3,0.3c-0.4-0.6-1-1.2-1.2-1.9
		c-10.2-27.2-19.4-54.7-22-83.9c-2.1-23.7,1.5-46.8,9.2-69.2c4.2-12.1,9.4-23.8,14.1-35.7c0.3-0.7,0.7-1.4,1.1-2.1
		C245.8,483.8,246.2,483.8,246.6,483.9z"/>
	<path fill="#FFFFFF" d="M183.5,378.3c-4.9,7.9-7.6,16.4-9,25.4c-3.8,25.2-0.6,49.8,8.1,73.6c3,8.2,7.2,15.9,10.9,23.8
		c0.4,0.9,0.9,1.8,1,2.8c-16.1-23.3-29.5-47.8-32.1-76.8c0.3,35.9,13.2,67,35.8,94.4c-21-22-40.1-45-44.7-76.8c0,2.1-0.1,4.2,0,6.3
		c0.1,2.1,0.4,4.2,0.7,6.3c0.3,2.2,0.6,4.4,1.1,6.5c6.6,29.1,20.8,53.9,42.1,74.8c0.7,0.7,1.6,1.3,2,2.6c-0.4-0.2-0.8-0.2-1-0.5
		c-14.4-12-27.7-25-38.1-40.7c-6.8-10.3-12-21.4-13.5-33.8c-1.3-10.7,0.6-20.9,5.7-30.4c1-1.9,1.6-4.1,2.3-6.1
		c0.8-2.7,1.2-5.5,2.3-8c4.3-9.5,8.7-19,13.4-28.3C173.5,387.4,178.1,382.4,183.5,378.3z"/>
	<path fill="#FFFFFF" d="M208.8,155.9c-0.3-3.3-0.4-6.4-1-9.5c-2.1-11.7-8.5-20.8-17.9-27.8c-12.7-9.4-27.3-13.9-42.7-16.2
		c-14.9-2.2-29.7-2.2-44.6,0.7c-0.6,0.1-1.3,0.1-1.9,0c11.9-5.2,24.3-8.6,37.2-10.3c14.5-1.8,28.9-1.3,42.8,4
		c15.5,5.9,26.8,15.8,30.7,32.7C213.2,137.8,212.1,149.3,208.8,155.9z"/>
	<path fill="#FFFFFF" d="M328.9,469.9c2.5-3.3,4.7-6.4,6.9-9.4c28,16,42.8,57.5,32,79.7c3.5-14.9,0.1-28.7-7.5-41.5
		C352.8,486.1,342.5,476.3,328.9,469.9z"/>
	<path fill="#FFFFFF" d="M379.5,516.8c2.6-24.1-11.5-44.3-42.3-59.7c1.7-3,3.4-5.9,5.1-8.9C369.1,460,387,495.7,379.5,516.8z"/>
	<path fill="#FFFFFF" d="M343.2,445.7c1.4-3.2,2.6-6,3.8-8.8c23.7,7.2,46.3,36.9,42.1,59.7c-0.2-12.8-5.5-23.4-14.2-32.5
		C366.3,455,355.9,448.8,343.2,445.7z"/>
	<path fill="#FFFFFF" d="M142.3,506.2c-1,5.7,0.5,11.2,2.6,16.3c9.2,22,24.9,38.2,44.7,50.9c1,0.6,2,1.2,3.3,2
		c-0.7,0.1-1.1,0.2-1.4,0.1c-14.1-6.9-27.5-14.8-38.3-26.5c-8.4-9-14.2-19.2-13.6-31.9C139.9,513.5,141.5,509.9,142.3,506.2
		C142.4,506.3,142.3,506.2,142.3,506.2z"/>
	<path fill="#FFFFFF" d="M500.1,195.5c-17.9-20.7-41.3-27.6-67.7-28.3c2-2.6,3.8-5,5.7-7.2c0.4-0.4,1.5-0.5,2.2-0.4
		c22.6,4.3,42.7,13.2,57.2,31.9C498.4,192.9,499.2,194.2,500.1,195.5z"/>
	<path fill="#FFFFFF" d="M306.2,310.9c5.4-2,12.3,2.8,11.9,9c-0.5,9-4.3,16.9-8.9,24.7C308.2,333.3,307.2,322.3,306.2,310.9z"/>
	<path fill="#FFFFFF" d="M382.8,290.1c-2.1,0.2-3.7,0.4-5.7,0.6c0.6,1.8,1.2,3.5,1.9,5.5c-1.2,0.2-2.3,0.4-3.3,0.5
		c1.2-11.3,2.3-22.3,3.5-33.9c4.9,2.9,9.8,5.8,14.7,8.6c-0.1,0.3-0.2,0.5-0.3,0.8c-3.1-0.5-6.3-0.9-10.4-1.5
		c3.2,2.9,5.7,5.2,8.3,7.5c-0.1,0.2-0.2,0.4-0.3,0.6c-3.2-0.5-6.4-0.9-10.3-1.5c2.1,2.8,3.8,5,5.9,7.8c-2.6-0.2-4.4-0.4-6.8-0.6
		C381.1,286.6,381.8,288.1,382.8,290.1z"/>
	<path fill="#FFFFFF" d="M492.1,175.4c-14.1-13.6-31.3-20.3-50.6-22.9c0-2.1,0-4,0-6.4C461.4,150.9,478.9,159.3,492.1,175.4z"/>
	<path fill="#FFFFFF" d="M338.1,367.1c0.3-4.2,0.6-10.1,1.1-15.9c0.1-0.9,0.5-1.8,1.1-2.5c7.3-9.6,14.7-19.2,21.1-27.6
		C353.8,336,345.6,352.3,338.1,367.1z"/>
	<path fill="#FFFFFF" d="M403.1,382.4c-5.2-8.5-12.5-13.4-23.5-13.1c2.3-2.5,3.8-4.6,5.6-6.2c0.6-0.5,2.2-0.3,3.1,0.1
		C396.4,366,401.9,373,403.1,382.4z"/>
	<path fill="#FFFFFF" d="M357.6,304.3c-6.9,2.7-13.5,6.2-20.6,7.9c-3.6,0.9-8-1.4-11.9-3c10.7-1.9,21.4-3.7,32.1-5.6
		C357.3,303.9,357.4,304.1,357.6,304.3z"/>
	<path fill="#FFFFFF" d="M353.1,319.9c-4.3,8.8-8.6,17.5-12.9,26.3c0-5.3-2.4-10.8,2.6-15.4c3.6-3.3,6.5-7.5,9.8-11.2
		C352.7,319.7,352.9,319.8,353.1,319.9z"/>
	<path fill="#FFFFFF" d="M176,210.1c7.9,3,15.7,6.1,23.6,9.1c1.6,0.6,3.3,1,4.8,2.3c-4.3-0.8-8.6-1.6-12.9-2.5
		c-5.7-1.2-11.3-2.6-16.9-3.8C175,213.5,175.5,211.8,176,210.1z"/>
	<path fill="#FFFFFF" d="M336.9,431.9c-0.7,9.7-5.8,16.4-14.4,21c-1.3-2.2-1.4-3.7,1.1-5.2C329.7,444,333.3,438,336.9,431.9z"/>
	<path fill="#FFFFFF" d="M348,316.4c-2.8,5.6-5.3,10.7-7.8,15.7c-0.2,0-0.5-0.1-0.8-0.1c-0.2-4.4-0.4-8.9-0.5-13.3
		c0-0.4,0.8-1.2,1.3-1.3C342.6,317.1,344.9,316.8,348,316.4z"/>
	<path fill="#FFFFFF" d="M339.7,205.5c6.4,5,11.2,4.5,15.6-1.6c1.5,2.5,0.9,4.7-0.8,6.6c-2.3,2.6-6.5,3.6-10,2.2
		C341.5,211.5,339.5,209.6,339.7,205.5z"/>
	<path fill="#FFFFFF" d="M255,374.7c1.4,5.5,2.9,11.2,4.3,17c0.2,0.8-0.4,1.8-0.7,2.7c-0.9-0.5-2.4-0.9-2.6-1.6
		C254,386.7,253.9,380.5,255,374.7z"/>
	<path fill="#222222" d="M497.9,211.3c-8-3-15.3-5.7-22.5-8.4c-0.4-0.2-0.8-0.4-1.2-0.7c-13.8-10.6-29.6-16.5-46.6-19.2
		c-0.4-0.1-0.8-0.2-1.2-0.6C454,182.1,479.1,187.9,497.9,211.3z"/>
	<path fill="#222222" d="M456.2,199.3c-14.2-1-28,0.8-42,4.8c-1.1-3.2-2.1-6.3-3.3-9.8C426.6,192.1,441.6,194.1,456.2,199.3z"/>
	<path fill="#222222" d="M492.5,228.9c-10.5-3.7-20.1-7-29.6-10.4c0-0.2,0-0.4,0.1-0.6c8.5,1.9,17.1,3.5,25.5,5.7
		C490,224,490.9,226.7,492.5,228.9z"/>
</g>
</svg>
