<?xml version="1.0" standalone="no"?>
<!DOCTYPE svg PUBLIC "-//W3C//DTD SVG 20010904//EN"
 "http://www.w3.org/TR/2001/REC-SVG-20010904/DTD/svg10.dtd">
<svg version="1.0" xmlns="http://www.w3.org/2000/svg"
 width="260.000000pt" height="260.000000pt" viewBox="0 0 260.000000 260.000000"
 preserveAspectRatio="xMidYMid meet">
<metadata>
Created by potrace 1.11, written by Peter Selinger 2001-2013
</metadata>
<g transform="translate(0.000000,260.000000) scale(0.100000,-0.100000)"
fill="#000000" stroke="none">
<path d="M1175 2559 c-73 -11 -192 -45 -222 -65 -18 -11 -23 -24 -23 -54 l0
-40 -68 6 -67 6 -55 -43 c-117 -91 -287 -300 -306 -374 -6 -26 10 -86 33 -123
8 -13 13 -24 11 -25 -84 -42 -125 -68 -140 -88 -11 -14 -31 -79 -45 -145 -35
-167 -38 -426 -5 -589 80 -401 297 -721 594 -875 l77 -41 -23 53 c-40 92 -66
168 -57 168 5 0 15 -14 22 -32 21 -51 126 -206 147 -217 19 -10 178 -41 212
-41 15 0 14 6 -6 68 -13 37 -24 78 -24 92 0 14 -5 32 -11 40 -8 11 -9 8 -5
-15 9 -55 18 -175 13 -175 -7 0 -47 120 -64 190 l-13 55 6 -80 c3 -44 8 -98
11 -120 4 -26 2 -37 -4 -30 -11 11 -55 149 -72 225 -9 40 -10 35 -5 -35 2 -44
7 -96 11 -115 9 -53 -11 -25 -36 50 -29 91 -51 189 -51 230 0 31 -7 40 -66 84
-36 27 -86 76 -111 110 -39 51 -45 56 -39 31 11 -47 74 -132 127 -171 55 -40
63 -52 21 -30 -54 28 -129 94 -145 127 -14 31 -19 92 -17 209 1 54 17 57 22 3
7 -74 63 -178 137 -253 l64 -65 14 70 c8 39 25 97 38 130 21 50 22 62 11 75
-29 33 -70 115 -92 183 -13 40 -23 63 -24 51 0 -37 38 -171 65 -224 15 -29 22
-49 16 -46 -21 14 -86 143 -108 216 -12 41 -22 66 -22 55 -1 -40 29 -158 54
-212 14 -31 23 -58 21 -60 -7 -7 -96 177 -96 197 0 11 -4 21 -9 24 -26 17 35
-155 81 -226 22 -34 33 -56 23 -48 -29 24 -103 133 -124 185 -19 44 -21 46
-15 15 9 -57 78 -191 125 -244 33 -37 37 -45 17 -32 -38 25 -112 114 -142 170
-37 70 -42 123 -18 193 25 70 76 181 95 206 15 18 33 24 22 7 -3 -6 17 13 46
40 29 28 54 49 56 47 2 -2 -4 -21 -13 -43 -38 -90 -25 -277 27 -403 23 -54 33
-62 43 -35 15 38 15 0 1 -106 -14 -107 -14 -161 -1 -88 9 44 69 208 76 208 3
0 0 -46 -7 -102 -14 -121 -15 -173 -2 -113 27 115 93 280 75 185 -4 -19 -9
-64 -11 -100 -4 -57 -4 -60 5 -30 18 58 52 144 63 155 6 6 8 -4 4 -30 -21
-142 -28 -354 -16 -498 7 -84 13 -163 13 -176 1 -23 2 -23 71 -17 67 6 72 8
109 48 48 53 141 193 181 273 37 74 34 69 40 63 8 -7 -50 -166 -95 -264 l-38
-82 37 13 c467 164 786 747 732 1337 -18 195 -82 423 -151 535 -19 32 -88 74
-143 87 -22 5 -27 11 -22 24 4 9 10 42 12 72 l5 55 -60 62 c-109 111 -265 214
-385 252 -33 11 -42 10 -83 -10 -32 -15 -55 -36 -73 -65 -30 -50 -41 -55 -41
-17 0 34 -42 105 -74 127 -27 17 -49 18 -141 5z m137 -46 c30 -32 59 -111 61
-163 1 -27 3 -50 4 -50 2 0 12 18 24 41 28 56 94 125 130 138 39 14 37 2 -12
-44 -22 -22 -45 -49 -51 -60 -6 -11 6 -4 28 17 35 33 129 88 150 88 5 0 -21
-30 -57 -67 -36 -38 -81 -88 -100 -113 l-34 -45 45 36 c25 19 57 43 71 52 46
28 147 57 196 56 l48 -1 -67 -13 c-84 -17 -154 -54 -204 -108 -22 -23 -27 -31
-13 -19 56 49 222 87 279 64 22 -10 19 -11 -25 -11 -75 -2 -208 -70 -236 -122
-8 -16 -3 -14 26 6 78 52 229 88 285 67 20 -7 11 -10 -46 -14 -82 -6 -153 -39
-206 -96 -18 -20 -24 -29 -13 -20 49 41 139 72 221 76 46 2 90 0 100 -6 14 -8
1 -10 -53 -10 -84 1 -166 -32 -225 -89 l-37 -36 -58 40 c-32 22 -73 48 -91 57
l-33 17 -15 -36 c-25 -61 -29 -95 -11 -95 22 0 110 -30 122 -41 6 -7 -6 -8
-35 -5 l-45 6 48 -14 c66 -19 81 -26 75 -32 -3 -2 -27 0 -53 6 -74 16 -64 5
16 -19 83 -26 86 -38 4 -21 -79 16 -79 7 0 -15 66 -18 105 -43 49 -32 -16 3
-47 8 -69 11 -34 5 -31 3 22 -16 64 -24 97 -45 52 -35 -37 9 -91 -9 -122 -41
l-28 -29 20 -44 20 -44 0 43 1 42 53 0 c28 1 70 8 92 16 52 20 59 21 64 9 6
-15 -53 -46 -106 -55 -36 -6 -40 -8 -18 -9 17 -1 37 -6 45 -11 11 -7 5 -10
-25 -11 l-40 -1 48 -10 c63 -13 60 -26 -5 -22 l-53 4 42 -13 c61 -18 65 -30 8
-23 l-50 6 53 -16 c28 -9 52 -19 52 -23 0 -6 -88 -42 -150 -60 -32 -10 -30
-10 22 -6 31 3 65 8 75 11 14 5 15 4 7 -5 -6 -7 -38 -21 -70 -32 -59 -20 -59
-20 -14 -14 25 3 56 9 70 12 49 11 6 -15 -60 -36 -61 -20 -63 -21 -20 -16 25
2 56 8 70 11 52 14 3 -17 -57 -35 -56 -17 -63 -17 -114 -2 -39 12 -55 22 -57
36 -4 32 34 82 78 105 49 25 52 51 15 135 -28 63 -27 80 13 127 23 27 24 30 5
20 -12 -7 -31 -26 -43 -43 -12 -16 -25 -28 -28 -25 -3 3 9 25 28 49 27 36 24
33 -25 -15 -47 -48 -63 -58 -94 -59 l-36 -2 40 -7 40 -7 -35 -2 c-27 -1 -31
-4 -20 -11 8 -5 29 -10 45 -11 18 -2 7 -5 -25 -9 -50 -6 -51 -7 -15 -9 73 -3
77 -21 5 -22 -36 -1 -49 -4 -30 -6 158 -17 191 -54 47 -53 -34 1 -81 5 -104 9
-43 8 -43 8 -43 -20 0 -22 5 -29 19 -29 39 0 101 -72 101 -118 0 -15 -18 -23
-87 -44 -94 -27 -98 -26 -207 17 -16 7 -17 5 -8 -12 8 -14 26 -22 61 -27 l49
-6 7 -78 c10 -111 32 -219 56 -279 l21 -52 41 22 c61 32 163 31 208 -2 31 -23
32 -23 43 -5 19 32 44 108 45 134 1 15 4 21 11 14 10 -10 -12 -110 -36 -156
-20 -39 -8 -35 16 5 31 49 26 3 -5 -53 l-25 -45 25 28 c14 15 25 23 25 16 0
-14 -39 -59 -51 -59 -4 0 -10 12 -13 28 -4 15 -18 41 -32 57 l-25 30 16 -32
c8 -18 15 -45 14 -60 l-1 -28 -10 31 c-6 17 -21 44 -35 60 l-24 29 16 -32 c8
-18 15 -45 14 -60 -1 -25 -2 -24 -15 13 -8 23 -26 52 -41 65 l-26 24 17 -32
c18 -35 22 -103 6 -103 -5 0 -10 12 -10 28 l-1 27 -15 -27 c-14 -27 -18 -28
-90 -28 -70 0 -78 2 -105 29 l-29 29 0 129 0 128 -45 93 c-25 51 -72 133 -105
181 -33 48 -60 95 -60 105 0 46 35 179 64 241 47 99 102 158 191 200 70 34 73
35 109 20 48 -20 46 -27 -6 -19 l-43 5 43 -20 c50 -24 55 -33 10 -20 -61 17
-73 7 -15 -13 68 -24 77 -42 10 -22 -25 8 -56 14 -67 13 -12 0 5 -9 38 -19 32
-10 63 -23 69 -29 14 -14 5 -14 -56 3 -85 23 -109 27 -103 18 3 -6 22 -13 43
-17 20 -4 58 -18 85 -31 26 -13 49 -24 52 -24 5 0 -2 121 -9 156 -3 12 -15 25
-27 30 -18 6 -9 9 35 11 l57 4 0 44 c0 25 -2 45 -4 45 -2 0 -14 -16 -25 -36
-26 -43 -39 -39 -17 5 9 16 16 36 16 43 -1 7 -12 -9 -26 -35 -30 -57 -39 -58
-19 -2 8 22 14 51 14 65 -1 20 -3 18 -10 -10 -14 -52 -41 -110 -51 -110 -5 0
-5 7 0 18 13 24 23 94 13 87 -5 -2 -12 -20 -15 -38 -3 -19 -13 -42 -20 -53
-12 -16 -13 -11 -9 48 4 50 1 82 -15 134 -23 75 -80 178 -114 207 -11 10 -18
20 -15 23 8 8 79 -25 104 -48 30 -28 29 -17 -2 32 -22 35 -23 40 -8 40 10 0
33 -9 52 -21 l33 -20 -22 31 -21 30 26 0 c14 0 35 -5 45 -10 16 -9 18 -8 13 6
-5 13 -3 15 13 6 11 -6 27 -19 36 -29z m-262 -158 c37 -19 77 -65 95 -108 20
-49 33 -163 17 -153 -7 4 -12 23 -12 42 0 48 -21 93 -60 129 l-33 30 27 -37
c44 -58 76 -198 46 -198 -5 0 -10 14 -10 31 0 17 -5 40 -11 52 -17 33 -70 87
-102 103 -21 11 -15 3 21 -33 33 -31 54 -62 61 -88 14 -50 14 -85 1 -85 -5 0
-10 13 -10 30 0 35 -56 102 -104 127 -29 14 -28 12 8 -18 21 -18 45 -47 52
-65 16 -39 18 -100 4 -109 -6 -3 -10 4 -10 17 0 34 -34 84 -77 112 -60 39
-142 58 -233 54 -99 -4 -90 10 22 33 46 9 70 17 53 18 -16 0 -50 -4 -75 -8
-44 -9 -44 -8 -22 7 13 10 49 38 80 63 53 42 88 61 137 73 29 7 106 -4 135
-19z m-195 -194 c13 -5 -4 -10 -53 -14 -60 -5 -162 -36 -162 -50 0 -2 24 4 53
14 57 20 207 26 207 9 0 -5 -17 -10 -38 -10 -130 0 -265 -125 -250 -230 3 -16
2 -30 -1 -30 -11 0 -51 66 -52 86 -1 10 -5 3 -9 -16 l-7 -35 -16 37 c-44 98 4
192 119 233 41 15 176 19 209 6z m80 -71 c4 -6 -9 -10 -32 -10 -86 0 -200 -87
-223 -169 -18 -65 -15 -71 36 -71 52 0 101 -20 134 -55 l22 -23 -44 4 -43 5
33 -17 c46 -24 40 -35 -15 -28 l-48 5 45 -22 45 -23 -55 -6 -55 -5 47 -8 c68
-12 68 -25 1 -29 l-58 -3 57 -13 c32 -7 60 -17 63 -22 2 -4 -25 -11 -62 -15
-179 -19 -361 -94 -392 -162 -19 -41 -23 -20 -5 26 9 23 37 60 63 83 l46 41
-44 -24 c-24 -13 -56 -40 -72 -59 -16 -19 -29 -31 -29 -27 0 22 34 69 77 107
41 36 43 40 16 26 -18 -9 -48 -32 -68 -53 -19 -20 -35 -31 -35 -26 0 21 92
113 143 142 29 17 49 31 45 31 -23 0 -122 -53 -159 -86 l-43 -39 21 35 c19 32
52 62 123 113 19 13 13 12 -20 -4 -25 -12 -57 -33 -72 -47 -50 -47 -41 -14 11
41 56 59 139 109 214 128 39 9 47 15 41 28 -4 9 -9 34 -11 56 -5 50 21 94 74
129 64 42 212 72 228 46z m1056 -95 c49 -25 89 -55 89 -66 0 -5 -18 4 -40 20
-23 16 -63 35 -90 42 -28 7 -50 18 -50 25 0 15 37 6 91 -21z m-45 -30 c61 -18
136 -66 160 -103 15 -23 12 -22 -26 10 -42 37 -98 60 -172 73 -27 4 -36 10
-31 20 6 18 8 18 69 0z m54 -76 c34 -18 72 -46 86 -63 14 -17 52 -58 83 -92
32 -33 63 -76 69 -95 l12 -34 -36 43 c-32 38 -110 90 -120 79 -2 -2 20 -24 50
-50 30 -26 64 -67 76 -92 25 -51 21 -75 -4 -26 -22 41 -52 68 -108 97 -64 33
-72 30 -16 -5 69 -44 119 -122 118 -185 -1 -14 -10 -3 -26 31 -13 28 -37 59
-52 68 l-27 18 21 -24 c31 -34 51 -77 59 -126 8 -51 -10 -60 -19 -10 -4 20
-21 47 -42 68 l-37 34 31 -43 c36 -51 59 -144 44 -176 -10 -19 -11 -18 -11 13
-2 65 -62 140 -148 185 -46 23 -48 21 -14 -21 65 -81 136 -271 157 -418 10
-71 0 -54 -25 44 -29 117 -90 238 -152 303 -35 37 -43 42 -25 17 42 -59 103
-199 125 -289 23 -97 46 -258 37 -267 -7 -8 -11 7 -26 102 -18 118 -86 300
-135 360 -12 15 -11 10 4 -20 58 -120 91 -307 90 -499 l-1 -141 -14 140 c-15
153 -41 269 -86 386 -37 97 -65 137 -32 46 37 -103 54 -224 54 -378 0 -137
-20 -313 -40 -360 -9 -21 -10 -20 -5 11 31 228 2 529 -66 674 -11 22 -17 32
-14 21 46 -152 51 -369 16 -569 -21 -121 -105 -391 -124 -403 -7 -4 -8 0 -3
13 54 139 89 344 90 524 1 140 0 146 -24 178 -26 35 -82 73 -135 91 -25 9 -27
8 -11 -2 65 -43 126 -114 126 -146 -1 -12 -3 -11 -12 4 -19 35 -62 76 -100 96
-52 27 -72 24 -23 -4 46 -26 105 -99 105 -130 -1 -18 -5 -14 -21 16 -19 36
-90 97 -113 97 -6 0 6 -14 26 -30 42 -35 78 -89 78 -116 -1 -14 -5 -11 -17 11
-23 45 -60 81 -103 100 l-38 17 14 36 c7 21 15 49 19 65 4 20 11 27 28 27 39
-1 105 -37 153 -86 l47 -46 -7 43 c-9 61 -38 161 -44 155 -3 -3 -18 6 -34 19
-16 14 -35 25 -41 25 -7 0 0 -10 15 -23 24 -20 55 -67 44 -67 -3 0 -16 11 -30
25 -14 14 -31 25 -38 25 -7 0 -2 -7 10 -16 20 -14 52 -63 52 -80 0 -5 -15 7
-33 24 -20 19 -48 35 -69 39 l-36 5 23 69 c31 89 100 235 153 323 l42 68 -15
59 c-9 32 -31 94 -49 139 l-34 80 56 29 c75 39 137 36 222 -10z m-440 -89 c23
15 34 12 20 -5 -16 -19 -52 -16 -58 5 -4 12 -2 13 9 3 10 -8 20 -9 29 -3z
m140 -225 c23 -13 23 -14 5 -15 -11 -1 -14 -4 -7 -7 6 -2 12 -9 12 -15 0 -6
-7 -8 -14 -5 -10 4 -13 1 -10 -7 3 -7 -2 -20 -10 -29 -8 -8 -12 -17 -9 -21 4
-3 1 -6 -6 -6 -8 0 -11 6 -7 16 3 9 6 36 6 60 0 48 3 50 40 29z m-970 -60
c-63 -16 -134 -44 -127 -51 2 -2 16 0 31 6 35 13 166 13 166 0 0 -5 -10 -10
-22 -10 -26 0 -142 -53 -152 -69 -4 -6 10 -3 31 6 21 9 78 17 128 20 l90 4
-58 -24 c-51 -22 -167 -100 -167 -113 0 -2 18 5 41 17 43 21 155 49 199 48 22
0 20 -2 -15 -21 -65 -34 -113 -76 -160 -143 -55 -76 -57 -91 -7 -43 45 45 116
81 200 103 84 21 96 15 38 -19 -85 -50 -164 -175 -202 -321 -13 -51 -18 -105
-18 -200 1 -150 22 -246 79 -358 19 -38 35 -72 35 -75 0 -16 -57 79 -110 183
-64 124 -104 235 -125 347 l-14 73 4 -110 c2 -69 11 -136 24 -180 32 -114 -3
-48 -47 89 -44 134 -67 263 -59 331 2 25 1 43 -3 40 -15 -9 -33 -132 -32 -223
0 -51 -1 -92 -3 -90 -2 2 -11 44 -19 93 -20 114 -21 267 -1 331 19 63 18 67
-5 24 -29 -53 -60 -157 -60 -204 0 -22 -5 -48 -10 -56 -15 -23 -12 151 4 241
8 41 23 94 35 117 12 23 19 42 16 42 -14 0 -77 -116 -99 -182 -31 -90 -35 -50
-7 60 27 104 67 179 126 238 69 69 133 93 245 93 l85 -1 -55 -13z m825 -90
c-34 -16 -94 -20 -79 -6 9 9 48 17 89 19 15 0 12 -3 -10 -13z m-127 -17 c17
-17 15 -53 -5 -91 -18 -36 -20 -34 -26 46 -4 58 5 71 31 45z m-244 -51 c7 -57
26 -100 26 -59 0 29 34 29 122 2 83 -26 128 -68 128 -120 0 -22 -8 -47 -18
-60 -18 -22 -18 -21 -14 44 3 44 1 66 -7 66 -6 0 -11 -8 -11 -17 0 -10 -10
-36 -23 -58 -22 -39 -22 -39 -77 -36 -30 1 -58 8 -63 14 -4 7 -15 37 -24 67
l-17 55 -8 -45 c-5 -25 -6 -62 -3 -83 13 -87 -34 11 -51 106 -5 30 -2 45 13
65 14 19 18 33 12 47 -11 28 -11 65 0 65 5 0 12 -24 15 -53z m357 15 c-17 -32
-13 -37 9 -11 26 32 25 19 -1 -26 -28 -46 -18 -57 10 -12 12 19 29 41 38 48 9
8 4 -6 -11 -30 -15 -24 -36 -63 -46 -87 -23 -52 -35 -58 -24 -11 4 17 7 57 6
87 -1 32 4 57 11 62 17 10 20 2 8 -20z m-321 -250 c0 -21 -2 -24 -10 -12 -13
20 -13 53 0 45 6 -3 10 -18 10 -33z m421 -239 c43 -44 69 -92 69 -125 0 -16
-7 -8 -24 27 -25 54 -64 94 -115 114 -29 13 -39 30 -25 44 10 10 56 -19 95
-60z m-40 -32 c47 -49 85 -132 76 -168 -2 -11 -9 0 -16 28 -16 57 -60 113
-112 139 -26 14 -37 25 -33 35 11 27 37 16 85 -34z m-38 -41 c51 -57 77 -122
76 -189 l-1 -46 -12 56 c-14 69 -53 129 -105 167 -31 23 -37 32 -29 45 14 25
22 22 71 -33z m-192 -86 l19 -59 -6 70 c-3 39 -4 68 -1 65 3 -3 17 -44 32 -90
l25 -85 -5 70 c-4 39 -9 79 -12 90 -4 15 -2 17 7 9 6 -7 22 -45 36 -85 l24
-74 -6 55 c-3 30 -8 68 -11 84 -10 56 15 16 43 -67 35 -104 36 -199 5 -311
-32 -115 -42 -125 -35 -36 l5 75 -24 -88 c-14 -48 -28 -91 -31 -95 -4 -3 -5
29 -1 73 l6 80 -24 -88 c-14 -48 -28 -91 -32 -95 -7 -7 2 96 12 133 3 13 2 16
-4 10 -6 -5 -15 -35 -22 -65 -7 -30 -18 -68 -26 -85 -13 -28 -14 -24 -7 45 9
99 9 432 -1 495 -10 64 7 49 34 -31z m-515 -270 c23 -23 66 -53 95 -67 30 -15
46 -26 36 -27 -23 0 -116 46 -145 74 -27 23 -52 68 -51 88 0 7 6 4 12 -7 7
-11 31 -39 53 -61z"/>
<path d="M973 1845 c-32 -23 -29 -31 16 -43 35 -8 40 -7 44 9 7 25 23 24 30
-2 6 -23 27 -17 27 7 0 8 5 12 10 9 6 -3 10 -15 10 -26 0 -14 7 -19 25 -19 35
0 31 14 -10 46 -45 34 -119 43 -152 19z"/>
<path d="M990 1760 c12 -9 8 -10 -20 -5 -31 5 -30 3 13 -14 30 -12 63 -18 90
-15 l42 4 -39 -10 c-58 -15 -56 -20 5 -15 64 6 56 1 -24 -15 -32 -7 -57 -14
-55 -16 4 -3 129 15 135 20 1 0 4 13 8 27 6 25 5 26 -57 32 -35 4 -74 9 -88
13 -20 5 -22 4 -10 -6z"/>
<path d="M940 1596 c0 -14 117 -52 128 -42 3 3 -1 6 -9 6 -8 0 -38 11 -66 25
-38 17 -53 20 -53 11z"/>
<path d="M946 1551 c10 -10 110 -41 128 -40 13 0 -114 49 -128 49 -7 0 -7 -3
0 -9z"/>
<path d="M950 1519 c0 -5 11 -14 25 -19 29 -11 88 -23 65 -14 -8 4 -32 15 -52
24 -21 10 -38 14 -38 9z"/>
<path d="M960 1475 c0 -12 96 -42 105 -34 2 2 -21 14 -51 25 -39 16 -54 18
-54 9z"/>
<path d="M1905 1877 c22 -8 72 -31 110 -51 82 -42 97 -45 66 -12 -30 32 -108
65 -168 71 l-48 5 40 -13z"/>
<path d="M1792 1833 c2 -10 11 -16 19 -14 8 1 41 6 74 9 51 5 55 7 30 13 -16
4 -52 7 -78 8 -41 1 -48 -2 -45 -16z"/>
<path d="M2045 1737 c17 -8 32 -13 34 -11 7 7 -3 12 -34 19 l-30 6 30 -14z"/>
<path d="M1666 1221 c-15 -24 -25 -45 -23 -48 3 -3 13 7 22 21 22 34 48 33 74
-1 11 -16 21 -23 21 -17 0 6 -15 28 -34 49 l-33 39 -27 -43z"/>
</g>
</svg>
